<mxfile host="Electron" agent="Mozilla/5.0 (Macintosh; Intel Mac OS X 10_15_7) AppleWebKit/537.36 (KHTML, like Gecko) draw.io/26.2.2 Chrome/134.0.6998.178 Electron/35.1.2 Safari/537.36" version="26.2.2" pages="2">
  <diagram id="Oz4VHGN1nNMEp_QaT7qJ" name="full view">
    <mxGraphModel dx="6028" dy="906" grid="1" gridSize="10" guides="1" tooltips="1" connect="1" arrows="1" fold="1" page="0" pageScale="1" pageWidth="850" pageHeight="1100" math="0" shadow="0">
      <root>
        <mxCell id="0" />
        <mxCell id="1" value="overall flow" style="" parent="0" />
        <mxCell id="pozFuQ57fGPCnBzc6li_-57" value="" style="rounded=0;whiteSpace=wrap;html=1;strokeColor=none;fillColor=#D5E8D4;" parent="1" vertex="1">
          <mxGeometry x="-2170" y="600" width="300" height="460" as="geometry" />
        </mxCell>
        <mxCell id="sKsDHjl78Vn9EsCBVIiZ-1" value="" style="rounded=0;whiteSpace=wrap;html=1;fillColor=#f9f7ed;strokeColor=none;" parent="1" vertex="1">
          <mxGeometry x="-1490" y="1160" width="420" height="460" as="geometry" />
        </mxCell>
        <mxCell id="sKsDHjl78Vn9EsCBVIiZ-2" value="" style="rounded=0;whiteSpace=wrap;html=1;strokeColor=none;fillColor=#D5E8D4;" parent="1" vertex="1">
          <mxGeometry x="-1070" y="1160" width="310" height="460" as="geometry" />
        </mxCell>
        <mxCell id="sKsDHjl78Vn9EsCBVIiZ-3" value="" style="rounded=0;whiteSpace=wrap;html=1;strokeColor=none;fillColor=#D4E1F5;" parent="1" vertex="1">
          <mxGeometry x="-760" y="1160" width="320" height="460" as="geometry" />
        </mxCell>
        <mxCell id="lnrxjNFZU3uZvi3UB_ph-91" value="&lt;font style=&quot;font-size: 24px&quot;&gt;Threat Modeling Report&lt;/font&gt;" style="text;html=1;strokeColor=none;fillColor=none;align=center;verticalAlign=middle;whiteSpace=wrap;rounded=0;" parent="1" vertex="1">
          <mxGeometry x="-1240" y="1650" width="600" height="30" as="geometry" />
        </mxCell>
        <mxCell id="lnrxjNFZU3uZvi3UB_ph-92" value="&lt;font style=&quot;font-size: 24px&quot;&gt;Threat Prioritization Plan&lt;/font&gt;" style="text;html=1;strokeColor=none;fillColor=none;align=center;verticalAlign=middle;whiteSpace=wrap;rounded=0;" parent="1" vertex="1">
          <mxGeometry x="-120" y="1640" width="430" height="30" as="geometry" />
        </mxCell>
        <mxCell id="ubSWeTmmX8_9XJLQhyds-2" value="" style="rounded=0;whiteSpace=wrap;html=1;strokeColor=none;fillColor=#D5E8D4;" parent="1" vertex="1">
          <mxGeometry x="-70" y="1160" width="290" height="460" as="geometry" />
        </mxCell>
        <mxCell id="ubSWeTmmX8_9XJLQhyds-3" value="" style="rounded=0;whiteSpace=wrap;html=1;fillColor=#f9f7ed;strokeColor=none;connectable=1;" parent="1" vertex="1">
          <mxGeometry x="-360" y="1160" width="290" height="460" as="geometry" />
        </mxCell>
        <mxCell id="ubSWeTmmX8_9XJLQhyds-4" value="" style="rounded=0;whiteSpace=wrap;html=1;strokeColor=none;fillColor=#D4E1F5;" parent="1" vertex="1">
          <mxGeometry x="220" y="1160" width="290" height="460" as="geometry" />
        </mxCell>
        <mxCell id="ubSWeTmmX8_9XJLQhyds-5" style="edgeStyle=orthogonalEdgeStyle;rounded=0;orthogonalLoop=1;jettySize=auto;html=1;strokeWidth=1;dashed=1;exitX=0.25;exitY=1;exitDx=0;exitDy=0;entryX=0.5;entryY=1;entryDx=0;entryDy=0;entryPerimeter=0;" parent="1" source="ubSWeTmmX8_9XJLQhyds-9" target="sKsDHjl78Vn9EsCBVIiZ-13" edge="1">
          <mxGeometry relative="1" as="geometry">
            <Array as="points">
              <mxPoint x="-300" y="1480" />
              <mxPoint x="-1130" y="1480" />
            </Array>
            <mxPoint x="-220" y="1470" as="targetPoint" />
          </mxGeometry>
        </mxCell>
        <mxCell id="ubSWeTmmX8_9XJLQhyds-6" value="ranked / risked&lt;br&gt;threat report" style="shape=document;whiteSpace=wrap;html=1;boundedLbl=1;" parent="1" vertex="1">
          <mxGeometry x="-50" y="1500" width="120" height="80" as="geometry" />
        </mxCell>
        <mxCell id="ubSWeTmmX8_9XJLQhyds-7" style="edgeStyle=orthogonalEdgeStyle;rounded=0;orthogonalLoop=1;jettySize=auto;html=1;entryX=0;entryY=0.5;entryDx=0;entryDy=0;entryPerimeter=0;" parent="1" source="ubSWeTmmX8_9XJLQhyds-9" target="ubSWeTmmX8_9XJLQhyds-15" edge="1">
          <mxGeometry relative="1" as="geometry" />
        </mxCell>
        <mxCell id="ubSWeTmmX8_9XJLQhyds-8" style="edgeStyle=orthogonalEdgeStyle;rounded=0;orthogonalLoop=1;jettySize=auto;html=1;exitX=0.5;exitY=1;exitDx=0;exitDy=0;" parent="1" source="ubSWeTmmX8_9XJLQhyds-17" target="ubSWeTmmX8_9XJLQhyds-6" edge="1">
          <mxGeometry relative="1" as="geometry" />
        </mxCell>
        <mxCell id="ubSWeTmmX8_9XJLQhyds-9" value="rank" style="shape=process;whiteSpace=wrap;html=1;backgroundOutline=1;" parent="1" vertex="1">
          <mxGeometry x="-330" y="1360" width="120" height="60" as="geometry" />
        </mxCell>
        <mxCell id="ubSWeTmmX8_9XJLQhyds-10" style="edgeStyle=orthogonalEdgeStyle;rounded=0;orthogonalLoop=1;jettySize=auto;html=1;entryX=0.5;entryY=0;entryDx=0;entryDy=0;fillColor=#6a00ff;strokeColor=#3700CC;" parent="1" source="ubSWeTmmX8_9XJLQhyds-11" target="ubSWeTmmX8_9XJLQhyds-17" edge="1">
          <mxGeometry relative="1" as="geometry" />
        </mxCell>
        <mxCell id="ubSWeTmmX8_9XJLQhyds-11" value="&lt;span style=&quot;&quot;&gt;risk SME&lt;/span&gt;" style="shape=umlActor;verticalLabelPosition=bottom;labelBackgroundColor=none;verticalAlign=top;html=1;outlineConnect=0;fillColor=#D5E8D4;" parent="1" vertex="1">
          <mxGeometry x="-5" y="1190" width="30" height="60" as="geometry" />
        </mxCell>
        <mxCell id="ubSWeTmmX8_9XJLQhyds-14" style="edgeStyle=orthogonalEdgeStyle;rounded=0;orthogonalLoop=1;jettySize=auto;html=1;entryX=0;entryY=0.5;entryDx=0;entryDy=0;fillColor=#fa6800;strokeColor=#FF8000;" parent="1" source="ubSWeTmmX8_9XJLQhyds-15" target="ubSWeTmmX8_9XJLQhyds-17" edge="1">
          <mxGeometry relative="1" as="geometry" />
        </mxCell>
        <mxCell id="ubSWeTmmX8_9XJLQhyds-15" value="ranked&lt;br&gt;threat candidates" style="shape=note;whiteSpace=wrap;html=1;backgroundOutline=1;darkOpacity=0.05;" parent="1" vertex="1">
          <mxGeometry x="-170" y="1340" width="80" height="100" as="geometry" />
        </mxCell>
        <mxCell id="ubSWeTmmX8_9XJLQhyds-16" value="" style="edgeStyle=orthogonalEdgeStyle;rounded=0;orthogonalLoop=1;jettySize=auto;html=1;" parent="1" source="ubSWeTmmX8_9XJLQhyds-17" target="ubSWeTmmX8_9XJLQhyds-19" edge="1">
          <mxGeometry relative="1" as="geometry" />
        </mxCell>
        <mxCell id="ubSWeTmmX8_9XJLQhyds-17" value="risk" style="shape=process;whiteSpace=wrap;html=1;backgroundOutline=1;" parent="1" vertex="1">
          <mxGeometry x="-50" y="1360" width="120" height="60" as="geometry" />
        </mxCell>
        <mxCell id="ubSWeTmmX8_9XJLQhyds-18" style="edgeStyle=orthogonalEdgeStyle;rounded=0;orthogonalLoop=1;jettySize=auto;html=1;entryX=0;entryY=0.5;entryDx=0;entryDy=0;fillColor=#fa6800;strokeColor=#FF8000;exitX=1;exitY=0.503;exitDx=0;exitDy=0;exitPerimeter=0;" parent="1" source="ubSWeTmmX8_9XJLQhyds-19" target="ubSWeTmmX8_9XJLQhyds-22" edge="1">
          <mxGeometry relative="1" as="geometry">
            <Array as="points">
              <mxPoint x="240" y="1390" />
              <mxPoint x="240" y="1390" />
            </Array>
          </mxGeometry>
        </mxCell>
        <mxCell id="ubSWeTmmX8_9XJLQhyds-19" value="ranked/risked&lt;br&gt;threat candidates" style="shape=note;whiteSpace=wrap;html=1;backgroundOutline=1;darkOpacity=0.05;" parent="1" vertex="1">
          <mxGeometry x="110" y="1340" width="80" height="100" as="geometry" />
        </mxCell>
        <mxCell id="ubSWeTmmX8_9XJLQhyds-20" style="edgeStyle=orthogonalEdgeStyle;rounded=0;orthogonalLoop=1;jettySize=auto;html=1;entryX=0;entryY=0.5;entryDx=0;entryDy=0;entryPerimeter=0;" parent="1" source="ubSWeTmmX8_9XJLQhyds-22" target="ubSWeTmmX8_9XJLQhyds-24" edge="1">
          <mxGeometry relative="1" as="geometry">
            <mxPoint x="410" y="1390" as="targetPoint" />
          </mxGeometry>
        </mxCell>
        <mxCell id="ubSWeTmmX8_9XJLQhyds-21" style="edgeStyle=orthogonalEdgeStyle;rounded=0;orthogonalLoop=1;jettySize=auto;html=1;entryX=0.5;entryY=0;entryDx=0;entryDy=0;" parent="1" source="ubSWeTmmX8_9XJLQhyds-22" target="ubSWeTmmX8_9XJLQhyds-25" edge="1">
          <mxGeometry relative="1" as="geometry" />
        </mxCell>
        <mxCell id="ubSWeTmmX8_9XJLQhyds-22" value="slice" style="shape=process;whiteSpace=wrap;html=1;backgroundOutline=1;" parent="1" vertex="1">
          <mxGeometry x="250" y="1360" width="120" height="60" as="geometry" />
        </mxCell>
        <mxCell id="ubSWeTmmX8_9XJLQhyds-23" style="edgeStyle=orthogonalEdgeStyle;rounded=0;orthogonalLoop=1;jettySize=auto;html=1;entryX=0;entryY=0.5;entryDx=0;entryDy=0;exitX=0.998;exitY=0.498;exitDx=0;exitDy=0;exitPerimeter=0;" parent="1" source="ubSWeTmmX8_9XJLQhyds-24" target="ubSWeTmmX8_9XJLQhyds-28" edge="1">
          <mxGeometry relative="1" as="geometry">
            <mxPoint x="490" y="1390" as="sourcePoint" />
            <mxPoint x="520" y="1390" as="targetPoint" />
          </mxGeometry>
        </mxCell>
        <mxCell id="ubSWeTmmX8_9XJLQhyds-24" value="uncontrolled threats" style="shape=note;whiteSpace=wrap;html=1;backgroundOutline=1;darkOpacity=0.05;" parent="1" vertex="1">
          <mxGeometry x="410" y="1340" width="80" height="100" as="geometry" />
        </mxCell>
        <mxCell id="ubSWeTmmX8_9XJLQhyds-25" value="threat report" style="shape=document;whiteSpace=wrap;html=1;boundedLbl=1;" parent="1" vertex="1">
          <mxGeometry x="250" y="1500" width="120" height="80" as="geometry" />
        </mxCell>
        <mxCell id="ubSWeTmmX8_9XJLQhyds-26" style="edgeStyle=orthogonalEdgeStyle;rounded=0;orthogonalLoop=1;jettySize=auto;html=1;entryX=0.5;entryY=0;entryDx=0;entryDy=0;fillColor=#6a00ff;strokeColor=#3700CC;" parent="1" source="ubSWeTmmX8_9XJLQhyds-27" target="ubSWeTmmX8_9XJLQhyds-9" edge="1">
          <mxGeometry relative="1" as="geometry" />
        </mxCell>
        <mxCell id="ubSWeTmmX8_9XJLQhyds-27" value="&lt;span style=&quot;&quot;&gt;security SME&lt;/span&gt;" style="shape=umlActor;verticalLabelPosition=bottom;labelBackgroundColor=none;verticalAlign=top;html=1;outlineConnect=0;fillColor=#F9F7ED;" parent="1" vertex="1">
          <mxGeometry x="-285" y="1190" width="30" height="60" as="geometry" />
        </mxCell>
        <mxCell id="ubSWeTmmX8_9XJLQhyds-28" value="to issue tracking system" style="text;html=1;strokeColor=none;fillColor=none;align=center;verticalAlign=middle;whiteSpace=wrap;rounded=0;" parent="1" vertex="1">
          <mxGeometry x="530" y="1365" width="60" height="50" as="geometry" />
        </mxCell>
        <mxCell id="ubSWeTmmX8_9XJLQhyds-29" style="edgeStyle=orthogonalEdgeStyle;rounded=0;orthogonalLoop=1;jettySize=auto;html=1;entryX=0.5;entryY=0;entryDx=0;entryDy=0;fillColor=#6a00ff;strokeColor=#3700CC;" parent="1" source="ubSWeTmmX8_9XJLQhyds-30" target="ubSWeTmmX8_9XJLQhyds-22" edge="1">
          <mxGeometry relative="1" as="geometry" />
        </mxCell>
        <mxCell id="ubSWeTmmX8_9XJLQhyds-30" value="&lt;span style=&quot;&quot;&gt;security SME&lt;/span&gt;" style="shape=umlActor;verticalLabelPosition=bottom;labelBackgroundColor=none;verticalAlign=top;html=1;outlineConnect=0;fillColor=#D4E1F5;" parent="1" vertex="1">
          <mxGeometry x="295" y="1190" width="30" height="60" as="geometry" />
        </mxCell>
        <mxCell id="ubSWeTmmX8_9XJLQhyds-32" style="edgeStyle=orthogonalEdgeStyle;rounded=0;orthogonalLoop=1;jettySize=auto;html=1;exitX=0.25;exitY=1;exitDx=0;exitDy=0;strokeWidth=1;dashed=1;entryX=0.5;entryY=1;entryDx=0;entryDy=0;entryPerimeter=0;" parent="1" source="ubSWeTmmX8_9XJLQhyds-22" target="sKsDHjl78Vn9EsCBVIiZ-13" edge="1">
          <mxGeometry relative="1" as="geometry">
            <Array as="points">
              <mxPoint x="280" y="1480" />
              <mxPoint x="-1130" y="1480" />
            </Array>
            <mxPoint x="420" y="1570" as="sourcePoint" />
            <mxPoint x="-220" y="1470" as="targetPoint" />
          </mxGeometry>
        </mxCell>
        <mxCell id="ubSWeTmmX8_9XJLQhyds-33" value="threat candidate slicing" style="text;html=1;strokeColor=none;fillColor=none;align=center;verticalAlign=middle;whiteSpace=wrap;rounded=0;" parent="1" vertex="1">
          <mxGeometry x="220" y="1600" width="290" height="20" as="geometry" />
        </mxCell>
        <mxCell id="ubSWeTmmX8_9XJLQhyds-34" value="ranked threat candidate risking" style="text;html=1;strokeColor=none;fillColor=none;align=center;verticalAlign=middle;whiteSpace=wrap;rounded=0;" parent="1" vertex="1">
          <mxGeometry x="-70" y="1600" width="290" height="20" as="geometry" />
        </mxCell>
        <mxCell id="ubSWeTmmX8_9XJLQhyds-35" value="threat candidate ranking" style="text;html=1;strokeColor=none;fillColor=none;align=center;verticalAlign=middle;whiteSpace=wrap;rounded=0;" parent="1" vertex="1">
          <mxGeometry x="-360" y="1600" width="290" height="20" as="geometry" />
        </mxCell>
        <mxCell id="sKsDHjl78Vn9EsCBVIiZ-4" value="threat model report" style="shape=document;whiteSpace=wrap;html=1;boundedLbl=1;" parent="1" vertex="1">
          <mxGeometry x="-700" y="1510" width="120" height="80" as="geometry" />
        </mxCell>
        <mxCell id="sKsDHjl78Vn9EsCBVIiZ-5" style="edgeStyle=orthogonalEdgeStyle;rounded=0;orthogonalLoop=1;jettySize=auto;html=1;entryX=0;entryY=0.5;entryDx=0;entryDy=0;entryPerimeter=0;" parent="1" source="sKsDHjl78Vn9EsCBVIiZ-6" target="sKsDHjl78Vn9EsCBVIiZ-15" edge="1">
          <mxGeometry relative="1" as="geometry" />
        </mxCell>
        <mxCell id="sKsDHjl78Vn9EsCBVIiZ-6" value="threat model analysis" style="shape=process;whiteSpace=wrap;html=1;backgroundOutline=1;" parent="1" vertex="1">
          <mxGeometry x="-1030" y="1360" width="120" height="60" as="geometry" />
        </mxCell>
        <mxCell id="sKsDHjl78Vn9EsCBVIiZ-7" style="edgeStyle=orthogonalEdgeStyle;rounded=0;orthogonalLoop=1;jettySize=auto;html=1;entryX=0.75;entryY=0;entryDx=0;entryDy=0;fillColor=#6a00ff;strokeColor=#3700CC;" parent="1" source="sKsDHjl78Vn9EsCBVIiZ-35" target="sKsDHjl78Vn9EsCBVIiZ-24" edge="1">
          <mxGeometry relative="1" as="geometry" />
        </mxCell>
        <mxCell id="sKsDHjl78Vn9EsCBVIiZ-8" style="edgeStyle=orthogonalEdgeStyle;rounded=0;orthogonalLoop=1;jettySize=auto;html=1;entryX=0.25;entryY=0;entryDx=0;entryDy=0;fillColor=#6a00ff;strokeColor=#3700CC;" parent="1" source="sKsDHjl78Vn9EsCBVIiZ-32" target="sKsDHjl78Vn9EsCBVIiZ-19" edge="1">
          <mxGeometry relative="1" as="geometry">
            <mxPoint x="-695" y="930" as="sourcePoint" />
            <Array as="points">
              <mxPoint x="-695" y="1310" />
              <mxPoint x="-670" y="1310" />
            </Array>
          </mxGeometry>
        </mxCell>
        <mxCell id="sKsDHjl78Vn9EsCBVIiZ-9" style="edgeStyle=orthogonalEdgeStyle;rounded=0;orthogonalLoop=1;jettySize=auto;html=1;entryX=0.5;entryY=0;entryDx=0;entryDy=0;fillColor=#6a00ff;strokeColor=#3700CC;" parent="1" source="sKsDHjl78Vn9EsCBVIiZ-34" target="sKsDHjl78Vn9EsCBVIiZ-6" edge="1">
          <mxGeometry relative="1" as="geometry" />
        </mxCell>
        <mxCell id="sKsDHjl78Vn9EsCBVIiZ-10" style="edgeStyle=orthogonalEdgeStyle;rounded=0;orthogonalLoop=1;jettySize=auto;html=1;entryX=0.25;entryY=0;entryDx=0;entryDy=0;fillColor=#6a00ff;strokeColor=#3700CC;" parent="1" source="sKsDHjl78Vn9EsCBVIiZ-36" target="sKsDHjl78Vn9EsCBVIiZ-24" edge="1">
          <mxGeometry relative="1" as="geometry" />
        </mxCell>
        <mxCell id="sKsDHjl78Vn9EsCBVIiZ-11" style="edgeStyle=orthogonalEdgeStyle;rounded=0;orthogonalLoop=1;jettySize=auto;html=1;entryX=0.75;entryY=0;entryDx=0;entryDy=0;fillColor=#6a00ff;strokeColor=#3700CC;" parent="1" source="sKsDHjl78Vn9EsCBVIiZ-33" target="sKsDHjl78Vn9EsCBVIiZ-19" edge="1">
          <mxGeometry relative="1" as="geometry">
            <mxPoint x="-570" y="1120" as="sourcePoint" />
            <Array as="points">
              <mxPoint x="-585" y="1310" />
              <mxPoint x="-610" y="1310" />
            </Array>
          </mxGeometry>
        </mxCell>
        <mxCell id="sKsDHjl78Vn9EsCBVIiZ-12" style="edgeStyle=orthogonalEdgeStyle;rounded=0;orthogonalLoop=1;jettySize=auto;html=1;entryX=0;entryY=0.75;entryDx=0;entryDy=0;fillColor=#fa6800;strokeColor=#FF8000;" parent="1" source="sKsDHjl78Vn9EsCBVIiZ-13" target="sKsDHjl78Vn9EsCBVIiZ-6" edge="1">
          <mxGeometry relative="1" as="geometry" />
        </mxCell>
        <mxCell id="sKsDHjl78Vn9EsCBVIiZ-13" value="threat model" style="shape=note;whiteSpace=wrap;html=1;backgroundOutline=1;darkOpacity=0.05;" parent="1" vertex="1">
          <mxGeometry x="-1170" y="1355" width="80" height="100" as="geometry" />
        </mxCell>
        <mxCell id="sKsDHjl78Vn9EsCBVIiZ-14" style="edgeStyle=orthogonalEdgeStyle;rounded=0;orthogonalLoop=1;jettySize=auto;html=1;entryX=0;entryY=0.5;entryDx=0;entryDy=0;fillColor=#fa6800;strokeColor=#FF8000;" parent="1" source="sKsDHjl78Vn9EsCBVIiZ-15" target="sKsDHjl78Vn9EsCBVIiZ-19" edge="1">
          <mxGeometry relative="1" as="geometry" />
        </mxCell>
        <mxCell id="sKsDHjl78Vn9EsCBVIiZ-15" value="threat candidates" style="shape=note;whiteSpace=wrap;html=1;backgroundOutline=1;darkOpacity=0.05;" parent="1" vertex="1">
          <mxGeometry x="-860" y="1340" width="80" height="100" as="geometry" />
        </mxCell>
        <mxCell id="sKsDHjl78Vn9EsCBVIiZ-16" style="edgeStyle=orthogonalEdgeStyle;rounded=0;orthogonalLoop=1;jettySize=auto;html=1;entryX=0;entryY=0.5;entryDx=0;entryDy=0;entryPerimeter=0;" parent="1" source="sKsDHjl78Vn9EsCBVIiZ-19" target="sKsDHjl78Vn9EsCBVIiZ-21" edge="1">
          <mxGeometry relative="1" as="geometry" />
        </mxCell>
        <mxCell id="sKsDHjl78Vn9EsCBVIiZ-17" style="edgeStyle=orthogonalEdgeStyle;rounded=0;orthogonalLoop=1;jettySize=auto;html=1;entryX=0.5;entryY=0;entryDx=0;entryDy=0;exitX=0.5;exitY=1;exitDx=0;exitDy=0;" parent="1" source="sKsDHjl78Vn9EsCBVIiZ-19" target="sKsDHjl78Vn9EsCBVIiZ-4" edge="1">
          <mxGeometry relative="1" as="geometry" />
        </mxCell>
        <mxCell id="sKsDHjl78Vn9EsCBVIiZ-18" style="edgeStyle=orthogonalEdgeStyle;rounded=0;orthogonalLoop=1;jettySize=auto;html=1;exitX=0.25;exitY=1;exitDx=0;exitDy=0;entryX=0.5;entryY=1;entryDx=0;entryDy=0;entryPerimeter=0;strokeWidth=1;dashed=1;" parent="1" source="sKsDHjl78Vn9EsCBVIiZ-19" target="sKsDHjl78Vn9EsCBVIiZ-13" edge="1">
          <mxGeometry relative="1" as="geometry">
            <mxPoint x="-1150" y="1650" as="targetPoint" />
            <Array as="points">
              <mxPoint x="-670" y="1480" />
              <mxPoint x="-1130" y="1480" />
            </Array>
          </mxGeometry>
        </mxCell>
        <mxCell id="sKsDHjl78Vn9EsCBVIiZ-19" value="triage" style="shape=process;whiteSpace=wrap;html=1;backgroundOutline=1;" parent="1" vertex="1">
          <mxGeometry x="-700" y="1360" width="120" height="60" as="geometry" />
        </mxCell>
        <mxCell id="pozFuQ57fGPCnBzc6li_-3" style="edgeStyle=orthogonalEdgeStyle;rounded=0;orthogonalLoop=1;jettySize=auto;html=1;entryX=0;entryY=0.5;entryDx=0;entryDy=0;strokeColor=#FF8000;" parent="1" source="sKsDHjl78Vn9EsCBVIiZ-21" target="ubSWeTmmX8_9XJLQhyds-9" edge="1">
          <mxGeometry relative="1" as="geometry" />
        </mxCell>
        <mxCell id="sKsDHjl78Vn9EsCBVIiZ-21" value="triaged&lt;br&gt;threat candidates" style="shape=note;whiteSpace=wrap;html=1;backgroundOutline=1;darkOpacity=0.05;" parent="1" vertex="1">
          <mxGeometry x="-540" y="1340" width="80" height="100" as="geometry" />
        </mxCell>
        <mxCell id="sKsDHjl78Vn9EsCBVIiZ-23" style="edgeStyle=orthogonalEdgeStyle;rounded=0;orthogonalLoop=1;jettySize=auto;html=1;entryX=0;entryY=0.5;entryDx=0;entryDy=0;entryPerimeter=0;" parent="1" source="sKsDHjl78Vn9EsCBVIiZ-24" target="sKsDHjl78Vn9EsCBVIiZ-13" edge="1">
          <mxGeometry relative="1" as="geometry" />
        </mxCell>
        <mxCell id="sKsDHjl78Vn9EsCBVIiZ-24" value="threat model creation" style="shape=process;whiteSpace=wrap;html=1;backgroundOutline=1;" parent="1" vertex="1">
          <mxGeometry x="-1340" y="1375" width="120" height="60" as="geometry" />
        </mxCell>
        <mxCell id="sKsDHjl78Vn9EsCBVIiZ-27" value="model creation" style="text;html=1;strokeColor=none;fillColor=none;align=center;verticalAlign=middle;whiteSpace=wrap;rounded=0;" parent="1" vertex="1">
          <mxGeometry x="-1490" y="1600" width="420" height="20" as="geometry" />
        </mxCell>
        <mxCell id="sKsDHjl78Vn9EsCBVIiZ-28" value="analysis" style="text;html=1;strokeColor=none;fillColor=none;align=center;verticalAlign=middle;whiteSpace=wrap;rounded=0;" parent="1" vertex="1">
          <mxGeometry x="-1060" y="1600" width="300" height="20" as="geometry" />
        </mxCell>
        <mxCell id="sKsDHjl78Vn9EsCBVIiZ-29" value="triaging" style="text;html=1;strokeColor=none;fillColor=none;align=center;verticalAlign=middle;whiteSpace=wrap;rounded=0;" parent="1" vertex="1">
          <mxGeometry x="-760" y="1600" width="320" height="20" as="geometry" />
        </mxCell>
        <mxCell id="sKsDHjl78Vn9EsCBVIiZ-30" style="edgeStyle=orthogonalEdgeStyle;rounded=0;orthogonalLoop=1;jettySize=auto;html=1;fillColor=#fa6800;strokeColor=#FF8000;entryX=0;entryY=0.5;entryDx=0;entryDy=0;" parent="1" source="sKsDHjl78Vn9EsCBVIiZ-31" target="sKsDHjl78Vn9EsCBVIiZ-24" edge="1">
          <mxGeometry relative="1" as="geometry">
            <mxPoint x="-1340" y="1405" as="targetPoint" />
          </mxGeometry>
        </mxCell>
        <mxCell id="sKsDHjl78Vn9EsCBVIiZ-31" value="system&lt;br&gt;design" style="shape=note;whiteSpace=wrap;html=1;backgroundOutline=1;darkOpacity=0.05;" parent="1" vertex="1">
          <mxGeometry x="-1470" y="1355" width="80" height="100" as="geometry" />
        </mxCell>
        <mxCell id="sKsDHjl78Vn9EsCBVIiZ-32" value="&lt;span style=&quot;&quot;&gt;threat modeling&lt;br&gt;&amp;nbsp; &amp;nbsp; &amp;nbsp; &amp;nbsp; &amp;nbsp;SME&amp;nbsp; &amp;nbsp; &amp;nbsp; &amp;nbsp;&amp;nbsp;&lt;/span&gt;" style="shape=umlActor;verticalLabelPosition=bottom;labelBackgroundColor=none;verticalAlign=top;html=1;outlineConnect=0;fillColor=#D4E1F5;" parent="1" vertex="1">
          <mxGeometry x="-710" y="1190" width="30" height="60" as="geometry" />
        </mxCell>
        <mxCell id="sKsDHjl78Vn9EsCBVIiZ-33" value="&lt;span style=&quot;&quot;&gt;development&lt;br&gt;&amp;nbsp; &amp;nbsp; &amp;nbsp; SME&amp;nbsp; &amp;nbsp; &amp;nbsp; &amp;nbsp;&lt;/span&gt;" style="shape=umlActor;verticalLabelPosition=bottom;labelBackgroundColor=none;verticalAlign=top;html=1;outlineConnect=0;fillColor=#D4E1F5;" parent="1" vertex="1">
          <mxGeometry x="-600" y="1190" width="30" height="60" as="geometry" />
        </mxCell>
        <mxCell id="c_7liNHRMW5tn1IMyE7j-1" value="" style="edgeStyle=orthogonalEdgeStyle;rounded=0;orthogonalLoop=1;jettySize=auto;html=1;" parent="1" source="sKsDHjl78Vn9EsCBVIiZ-34" target="sKsDHjl78Vn9EsCBVIiZ-6" edge="1">
          <mxGeometry relative="1" as="geometry" />
        </mxCell>
        <mxCell id="sKsDHjl78Vn9EsCBVIiZ-34" value="&lt;span style=&quot;&quot;&gt;threat modeling&lt;br&gt;&amp;nbsp; &amp;nbsp; &amp;nbsp; &amp;nbsp; &amp;nbsp;SME&amp;nbsp; &amp;nbsp; &amp;nbsp; &amp;nbsp;&amp;nbsp;&lt;/span&gt;" style="shape=umlActor;verticalLabelPosition=bottom;labelBackgroundColor=none;verticalAlign=top;html=1;outlineConnect=0;fillColor=#D5E8D4;" parent="1" vertex="1">
          <mxGeometry x="-985" y="1190" width="30" height="60" as="geometry" />
        </mxCell>
        <mxCell id="sKsDHjl78Vn9EsCBVIiZ-35" value="&lt;span style=&quot;&quot;&gt;threat modeling&lt;br&gt;&amp;nbsp; &amp;nbsp; &amp;nbsp; &amp;nbsp; &amp;nbsp;SME&amp;nbsp; &amp;nbsp; &amp;nbsp; &amp;nbsp;&amp;nbsp;&lt;/span&gt;" style="shape=umlActor;verticalLabelPosition=bottom;labelBackgroundColor=none;verticalAlign=top;html=1;outlineConnect=0;fillColor=#F9F7ED;" parent="1" vertex="1">
          <mxGeometry x="-1240" y="1190" width="30" height="60" as="geometry" />
        </mxCell>
        <mxCell id="sKsDHjl78Vn9EsCBVIiZ-36" value="&lt;span style=&quot;&quot;&gt;development&lt;br&gt;&amp;nbsp; &amp;nbsp; &amp;nbsp; SME&amp;nbsp; &amp;nbsp; &amp;nbsp; &amp;nbsp;&lt;/span&gt;" style="shape=umlActor;verticalLabelPosition=bottom;labelBackgroundColor=none;verticalAlign=top;html=1;outlineConnect=0;fillColor=#F9F7ED;" parent="1" vertex="1">
          <mxGeometry x="-1350" y="1190" width="30" height="60" as="geometry" />
        </mxCell>
        <mxCell id="pozFuQ57fGPCnBzc6li_-4" value="" style="rounded=0;whiteSpace=wrap;html=1;strokeColor=none;fillColor=#D5E8D4;" parent="1" vertex="1">
          <mxGeometry x="-1380" y="615" width="300" height="460" as="geometry" />
        </mxCell>
        <mxCell id="pozFuQ57fGPCnBzc6li_-5" value="" style="rounded=0;whiteSpace=wrap;html=1;fillColor=#f9f7ed;strokeColor=none;" parent="1" vertex="1">
          <mxGeometry x="-1810" y="615" width="430" height="460" as="geometry" />
        </mxCell>
        <mxCell id="pozFuQ57fGPCnBzc6li_-6" value="requirements report" style="shape=document;whiteSpace=wrap;html=1;boundedLbl=1;" parent="1" vertex="1">
          <mxGeometry x="-1350" y="950" width="120" height="80" as="geometry" />
        </mxCell>
        <mxCell id="pozFuQ57fGPCnBzc6li_-7" style="edgeStyle=orthogonalEdgeStyle;rounded=0;orthogonalLoop=1;jettySize=auto;html=1;exitX=0.25;exitY=1;exitDx=0;exitDy=0;entryX=0.5;entryY=1;entryDx=0;entryDy=0;entryPerimeter=0;dashed=1;" parent="1" source="pozFuQ57fGPCnBzc6li_-22" target="pozFuQ57fGPCnBzc6li_-71" edge="1">
          <mxGeometry relative="1" as="geometry">
            <Array as="points">
              <mxPoint x="-1610" y="905" />
              <mxPoint x="-1660" y="905" />
              <mxPoint x="-1660" y="1015" />
              <mxPoint x="-1930" y="1015" />
            </Array>
            <mxPoint x="-1750" y="985" as="targetPoint" />
          </mxGeometry>
        </mxCell>
        <mxCell id="pozFuQ57fGPCnBzc6li_-8" style="edgeStyle=orthogonalEdgeStyle;rounded=0;orthogonalLoop=1;jettySize=auto;html=1;entryX=0.25;entryY=0;entryDx=0;entryDy=0;strokeColor=#0000FF;" parent="1" source="pozFuQ57fGPCnBzc6li_-9" target="pozFuQ57fGPCnBzc6li_-22" edge="1">
          <mxGeometry relative="1" as="geometry">
            <mxPoint x="-1290" y="455" as="sourcePoint" />
            <Array as="points">
              <mxPoint x="-1635" y="775" />
              <mxPoint x="-1610" y="775" />
            </Array>
          </mxGeometry>
        </mxCell>
        <mxCell id="pozFuQ57fGPCnBzc6li_-9" value="&lt;span style=&quot;&quot;&gt;security&lt;br&gt;&amp;nbsp; &amp;nbsp;SME&amp;nbsp;&amp;nbsp;&lt;/span&gt;" style="shape=umlActor;verticalLabelPosition=bottom;labelBackgroundColor=none;verticalAlign=top;html=1;outlineConnect=0;fillColor=none;" parent="1" vertex="1">
          <mxGeometry x="-1650" y="645" width="30" height="60" as="geometry" />
        </mxCell>
        <mxCell id="pozFuQ57fGPCnBzc6li_-10" style="edgeStyle=orthogonalEdgeStyle;rounded=0;orthogonalLoop=1;jettySize=auto;html=1;entryX=0.75;entryY=0;entryDx=0;entryDy=0;strokeColor=#0000FF;" parent="1" source="pozFuQ57fGPCnBzc6li_-12" target="pozFuQ57fGPCnBzc6li_-22" edge="1">
          <mxGeometry relative="1" as="geometry">
            <mxPoint x="-1310" y="545" as="sourcePoint" />
            <Array as="points">
              <mxPoint x="-1525" y="775" />
              <mxPoint x="-1550" y="775" />
            </Array>
          </mxGeometry>
        </mxCell>
        <mxCell id="pozFuQ57fGPCnBzc6li_-11" style="edgeStyle=orthogonalEdgeStyle;rounded=0;orthogonalLoop=1;jettySize=auto;html=1;entryX=0.5;entryY=0;entryDx=0;entryDy=0;strokeColor=#0000FF;" parent="1" source="pozFuQ57fGPCnBzc6li_-27" target="pozFuQ57fGPCnBzc6li_-19" edge="1">
          <mxGeometry relative="1" as="geometry">
            <mxPoint x="-1050" y="465" as="sourcePoint" />
            <Array as="points">
              <mxPoint x="-1290" y="655" />
              <mxPoint x="-1290" y="655" />
            </Array>
          </mxGeometry>
        </mxCell>
        <mxCell id="pozFuQ57fGPCnBzc6li_-12" value="&lt;span style=&quot;&quot;&gt;development&lt;br&gt;&amp;nbsp; &amp;nbsp; &amp;nbsp; &amp;nbsp;SME&amp;nbsp; &amp;nbsp; &amp;nbsp;&amp;nbsp;&lt;/span&gt;" style="shape=umlActor;verticalLabelPosition=bottom;labelBackgroundColor=none;verticalAlign=top;html=1;outlineConnect=0;fillColor=none;" parent="1" vertex="1">
          <mxGeometry x="-1540" y="645" width="30" height="60" as="geometry" />
        </mxCell>
        <mxCell id="pozFuQ57fGPCnBzc6li_-13" style="edgeStyle=orthogonalEdgeStyle;rounded=0;orthogonalLoop=1;jettySize=auto;html=1;entryX=0;entryY=0.75;entryDx=0;entryDy=0;strokeColor=#FF8000;" parent="1" source="pozFuQ57fGPCnBzc6li_-14" target="pozFuQ57fGPCnBzc6li_-22" edge="1">
          <mxGeometry relative="1" as="geometry">
            <Array as="points">
              <mxPoint x="-1680" y="925" />
              <mxPoint x="-1680" y="860" />
            </Array>
          </mxGeometry>
        </mxCell>
        <mxCell id="pozFuQ57fGPCnBzc6li_-14" value="product element design" style="shape=note;whiteSpace=wrap;html=1;backgroundOutline=1;darkOpacity=0.05;" parent="1" vertex="1">
          <mxGeometry x="-1780" y="875" width="80" height="100" as="geometry" />
        </mxCell>
        <mxCell id="pozFuQ57fGPCnBzc6li_-15" style="edgeStyle=orthogonalEdgeStyle;rounded=0;orthogonalLoop=1;jettySize=auto;html=1;entryX=0;entryY=0.5;entryDx=0;entryDy=0;exitX=1;exitY=0.5;exitDx=0;exitDy=0;entryPerimeter=0;" parent="1" source="pozFuQ57fGPCnBzc6li_-22" target="pozFuQ57fGPCnBzc6li_-29" edge="1">
          <mxGeometry relative="1" as="geometry">
            <mxPoint x="-1350" y="845" as="sourcePoint" />
          </mxGeometry>
        </mxCell>
        <mxCell id="pozFuQ57fGPCnBzc6li_-16" style="edgeStyle=orthogonalEdgeStyle;rounded=0;orthogonalLoop=1;jettySize=auto;html=1;entryX=0;entryY=0.5;entryDx=0;entryDy=0;entryPerimeter=0;" parent="1" source="pozFuQ57fGPCnBzc6li_-19" target="pozFuQ57fGPCnBzc6li_-20" edge="1">
          <mxGeometry relative="1" as="geometry" />
        </mxCell>
        <mxCell id="pozFuQ57fGPCnBzc6li_-17" style="edgeStyle=orthogonalEdgeStyle;rounded=0;orthogonalLoop=1;jettySize=auto;html=1;entryX=0.5;entryY=0;entryDx=0;entryDy=0;exitX=0.5;exitY=1;exitDx=0;exitDy=0;" parent="1" source="pozFuQ57fGPCnBzc6li_-19" target="pozFuQ57fGPCnBzc6li_-6" edge="1">
          <mxGeometry relative="1" as="geometry" />
        </mxCell>
        <mxCell id="pozFuQ57fGPCnBzc6li_-18" style="edgeStyle=orthogonalEdgeStyle;rounded=0;orthogonalLoop=1;jettySize=auto;html=1;exitX=0.25;exitY=1;exitDx=0;exitDy=0;entryX=0.5;entryY=1;entryDx=0;entryDy=0;entryPerimeter=0;dashed=1;" parent="1" source="pozFuQ57fGPCnBzc6li_-22" target="pozFuQ57fGPCnBzc6li_-14" edge="1">
          <mxGeometry relative="1" as="geometry">
            <mxPoint x="-1460" y="1105" as="targetPoint" />
            <Array as="points">
              <mxPoint x="-1610" y="905" />
              <mxPoint x="-1660" y="905" />
              <mxPoint x="-1660" y="1015" />
              <mxPoint x="-1740" y="1015" />
            </Array>
          </mxGeometry>
        </mxCell>
        <mxCell id="pozFuQ57fGPCnBzc6li_-19" value="attach security requirements as dependencies" style="shape=process;whiteSpace=wrap;html=1;backgroundOutline=1;" parent="1" vertex="1">
          <mxGeometry x="-1350" y="815" width="120" height="60" as="geometry" />
        </mxCell>
        <mxCell id="pozFuQ57fGPCnBzc6li_-86" style="edgeStyle=orthogonalEdgeStyle;rounded=0;orthogonalLoop=1;jettySize=auto;html=1;entryX=0;entryY=0.25;entryDx=0;entryDy=0;strokeColor=#FF8000;" parent="1" source="pozFuQ57fGPCnBzc6li_-20" target="sKsDHjl78Vn9EsCBVIiZ-6" edge="1">
          <mxGeometry relative="1" as="geometry">
            <Array as="points">
              <mxPoint x="-1050" y="845" />
              <mxPoint x="-1050" y="1375" />
            </Array>
          </mxGeometry>
        </mxCell>
        <mxCell id="pozFuQ57fGPCnBzc6li_-20" value="updated development requirements" style="shape=note;whiteSpace=wrap;html=1;backgroundOutline=1;darkOpacity=0.05;" parent="1" vertex="1">
          <mxGeometry x="-1180" y="795" width="80" height="100" as="geometry" />
        </mxCell>
        <mxCell id="pozFuQ57fGPCnBzc6li_-21" style="edgeStyle=orthogonalEdgeStyle;rounded=0;orthogonalLoop=1;jettySize=auto;html=1;exitX=0.5;exitY=1;exitDx=0;exitDy=0;entryX=0.5;entryY=0;entryDx=0;entryDy=0;" parent="1" source="pozFuQ57fGPCnBzc6li_-22" target="pozFuQ57fGPCnBzc6li_-30" edge="1">
          <mxGeometry relative="1" as="geometry" />
        </mxCell>
        <mxCell id="pozFuQ57fGPCnBzc6li_-22" value="design&lt;br&gt;security&lt;br&gt;analysis" style="shape=process;whiteSpace=wrap;html=1;backgroundOutline=1;" parent="1" vertex="1">
          <mxGeometry x="-1640" y="815" width="120" height="60" as="geometry" />
        </mxCell>
        <mxCell id="pozFuQ57fGPCnBzc6li_-25" value="design security analysis" style="text;html=1;strokeColor=none;fillColor=none;align=center;verticalAlign=middle;whiteSpace=wrap;rounded=0;" parent="1" vertex="1">
          <mxGeometry x="-1810" y="1055" width="430" height="20" as="geometry" />
        </mxCell>
        <mxCell id="pozFuQ57fGPCnBzc6li_-26" value="attach security requirements" style="text;html=1;strokeColor=none;fillColor=none;align=center;verticalAlign=middle;whiteSpace=wrap;rounded=0;" parent="1" vertex="1">
          <mxGeometry x="-1380" y="1055" width="300" height="20" as="geometry" />
        </mxCell>
        <mxCell id="pozFuQ57fGPCnBzc6li_-27" value="&lt;span style=&quot;&quot;&gt;development&lt;/span&gt;&lt;br&gt;&lt;span style=&quot;&quot;&gt;&amp;nbsp; &amp;nbsp; &amp;nbsp; &amp;nbsp;SME&amp;nbsp; &amp;nbsp; &amp;nbsp;&amp;nbsp;&lt;/span&gt;" style="shape=umlActor;verticalLabelPosition=bottom;labelBackgroundColor=none;verticalAlign=top;html=1;outlineConnect=0;fillColor=none;" parent="1" vertex="1">
          <mxGeometry x="-1305" y="645" width="30" height="60" as="geometry" />
        </mxCell>
        <mxCell id="pozFuQ57fGPCnBzc6li_-28" style="edgeStyle=orthogonalEdgeStyle;rounded=0;orthogonalLoop=1;jettySize=auto;html=1;entryX=0;entryY=0.5;entryDx=0;entryDy=0;strokeColor=#FF8000;" parent="1" source="pozFuQ57fGPCnBzc6li_-29" target="pozFuQ57fGPCnBzc6li_-19" edge="1">
          <mxGeometry relative="1" as="geometry" />
        </mxCell>
        <mxCell id="pozFuQ57fGPCnBzc6li_-29" value="identified security requirements" style="shape=note;whiteSpace=wrap;html=1;backgroundOutline=1;darkOpacity=0.05;" parent="1" vertex="1">
          <mxGeometry x="-1480" y="795" width="80" height="100" as="geometry" />
        </mxCell>
        <mxCell id="pozFuQ57fGPCnBzc6li_-30" value="design security analysis report" style="shape=document;whiteSpace=wrap;html=1;boundedLbl=1;" parent="1" vertex="1">
          <mxGeometry x="-1640" y="950" width="120" height="80" as="geometry" />
        </mxCell>
        <mxCell id="pozFuQ57fGPCnBzc6li_-31" value="&lt;font style=&quot;font-size: 24px&quot;&gt;Design Showing Security Considerations&lt;/font&gt;" style="text;html=1;strokeColor=none;fillColor=none;align=center;verticalAlign=middle;whiteSpace=wrap;rounded=0;" parent="1" vertex="1">
          <mxGeometry x="-1780" y="1105" width="600" height="30" as="geometry" />
        </mxCell>
        <mxCell id="pozFuQ57fGPCnBzc6li_-56" value="" style="rounded=0;whiteSpace=wrap;html=1;fillColor=#f9f7ed;strokeColor=none;" parent="1" vertex="1">
          <mxGeometry x="-2620" y="600" width="450" height="460" as="geometry" />
        </mxCell>
        <mxCell id="pozFuQ57fGPCnBzc6li_-58" value="requirements report" style="shape=document;whiteSpace=wrap;html=1;boundedLbl=1;" parent="1" vertex="1">
          <mxGeometry x="-2140" y="950" width="120" height="80" as="geometry" />
        </mxCell>
        <mxCell id="pozFuQ57fGPCnBzc6li_-59" style="edgeStyle=orthogonalEdgeStyle;rounded=0;orthogonalLoop=1;jettySize=auto;html=1;exitX=0.25;exitY=1;exitDx=0;exitDy=0;entryX=0.5;entryY=1;entryDx=0;entryDy=0;entryPerimeter=0;dashed=1;" parent="1" source="pozFuQ57fGPCnBzc6li_-72" target="pozFuQ57fGPCnBzc6li_-74" edge="1">
          <mxGeometry relative="1" as="geometry">
            <Array as="points">
              <mxPoint x="-2410" y="980" />
              <mxPoint x="-2560" y="980" />
            </Array>
          </mxGeometry>
        </mxCell>
        <mxCell id="pozFuQ57fGPCnBzc6li_-60" style="edgeStyle=orthogonalEdgeStyle;rounded=0;orthogonalLoop=1;jettySize=auto;html=1;entryX=0.25;entryY=0;entryDx=0;entryDy=0;fillColor=#6a00ff;strokeColor=#3700CC;" parent="1" source="pozFuQ57fGPCnBzc6li_-61" target="pozFuQ57fGPCnBzc6li_-72" edge="1">
          <mxGeometry relative="1" as="geometry">
            <mxPoint x="-2430" y="490" as="sourcePoint" />
            <Array as="points">
              <mxPoint x="-2435" y="740" />
              <mxPoint x="-2410" y="740" />
            </Array>
          </mxGeometry>
        </mxCell>
        <mxCell id="pozFuQ57fGPCnBzc6li_-61" value="&lt;span style=&quot;&quot;&gt;development&lt;/span&gt;&lt;br&gt;&lt;span style=&quot;&quot;&gt;&amp;nbsp; &amp;nbsp; &amp;nbsp; &amp;nbsp;SME&amp;nbsp; &amp;nbsp; &amp;nbsp;&amp;nbsp;&lt;/span&gt;" style="shape=umlActor;verticalLabelPosition=bottom;labelBackgroundColor=none;verticalAlign=top;html=1;outlineConnect=0;fillColor=none;" parent="1" vertex="1">
          <mxGeometry x="-2450" y="630" width="30" height="60" as="geometry" />
        </mxCell>
        <mxCell id="pozFuQ57fGPCnBzc6li_-62" style="edgeStyle=orthogonalEdgeStyle;rounded=0;orthogonalLoop=1;jettySize=auto;html=1;entryX=0.75;entryY=0;entryDx=0;entryDy=0;fillColor=#6a00ff;strokeColor=#3700CC;" parent="1" source="pozFuQ57fGPCnBzc6li_-64" target="pozFuQ57fGPCnBzc6li_-72" edge="1">
          <mxGeometry relative="1" as="geometry">
            <Array as="points">
              <mxPoint x="-2325" y="740" />
              <mxPoint x="-2350" y="740" />
            </Array>
          </mxGeometry>
        </mxCell>
        <mxCell id="pozFuQ57fGPCnBzc6li_-63" value="" style="edgeStyle=orthogonalEdgeStyle;rounded=0;orthogonalLoop=1;jettySize=auto;html=1;fillColor=#6a00ff;strokeColor=#3700CC;entryX=0.5;entryY=0;entryDx=0;entryDy=0;" parent="1" target="pozFuQ57fGPCnBzc6li_-70" edge="1">
          <mxGeometry relative="1" as="geometry">
            <Array as="points">
              <mxPoint x="-2080" y="660" />
            </Array>
            <mxPoint x="-2080" y="690" as="sourcePoint" />
          </mxGeometry>
        </mxCell>
        <mxCell id="pozFuQ57fGPCnBzc6li_-64" value="&lt;span style=&quot;&quot;&gt;security&lt;/span&gt;&lt;br&gt;&lt;span style=&quot;&quot;&gt;&amp;nbsp; &amp;nbsp;SME&amp;nbsp;&amp;nbsp;&lt;/span&gt;" style="shape=umlActor;verticalLabelPosition=bottom;labelBackgroundColor=none;verticalAlign=top;html=1;outlineConnect=0;fillColor=none;" parent="1" vertex="1">
          <mxGeometry x="-2340" y="630" width="30" height="60" as="geometry" />
        </mxCell>
        <mxCell id="pozFuQ57fGPCnBzc6li_-65" style="edgeStyle=orthogonalEdgeStyle;rounded=0;orthogonalLoop=1;jettySize=auto;html=1;entryX=0;entryY=0.25;entryDx=0;entryDy=0;strokeColor=#FF8000;" parent="1" source="pozFuQ57fGPCnBzc6li_-66" target="pozFuQ57fGPCnBzc6li_-72" edge="1">
          <mxGeometry relative="1" as="geometry" />
        </mxCell>
        <mxCell id="pozFuQ57fGPCnBzc6li_-66" value="element functional requirements" style="shape=note;whiteSpace=wrap;html=1;backgroundOutline=1;darkOpacity=0.05;" parent="1" vertex="1">
          <mxGeometry x="-2600" y="700" width="80" height="100" as="geometry" />
        </mxCell>
        <mxCell id="pozFuQ57fGPCnBzc6li_-67" style="edgeStyle=orthogonalEdgeStyle;rounded=0;orthogonalLoop=1;jettySize=auto;html=1;entryX=0;entryY=0.5;entryDx=0;entryDy=0;exitX=1;exitY=0.5;exitDx=0;exitDy=0;entryPerimeter=0;" parent="1" source="pozFuQ57fGPCnBzc6li_-72" target="pozFuQ57fGPCnBzc6li_-78" edge="1">
          <mxGeometry relative="1" as="geometry">
            <mxPoint x="-2150" y="830" as="sourcePoint" />
          </mxGeometry>
        </mxCell>
        <mxCell id="pozFuQ57fGPCnBzc6li_-68" style="edgeStyle=orthogonalEdgeStyle;rounded=0;orthogonalLoop=1;jettySize=auto;html=1;entryX=0;entryY=0.5;entryDx=0;entryDy=0;entryPerimeter=0;" parent="1" source="pozFuQ57fGPCnBzc6li_-70" target="pozFuQ57fGPCnBzc6li_-71" edge="1">
          <mxGeometry relative="1" as="geometry" />
        </mxCell>
        <mxCell id="pozFuQ57fGPCnBzc6li_-69" style="edgeStyle=orthogonalEdgeStyle;rounded=0;orthogonalLoop=1;jettySize=auto;html=1;entryX=0.5;entryY=0;entryDx=0;entryDy=0;exitX=0.5;exitY=1;exitDx=0;exitDy=0;" parent="1" source="pozFuQ57fGPCnBzc6li_-70" target="pozFuQ57fGPCnBzc6li_-58" edge="1">
          <mxGeometry relative="1" as="geometry" />
        </mxCell>
        <mxCell id="pozFuQ57fGPCnBzc6li_-70" value="product-level security catalog&lt;br&gt;creation" style="shape=process;whiteSpace=wrap;html=1;backgroundOutline=1;" parent="1" vertex="1">
          <mxGeometry x="-2140" y="800" width="120" height="60" as="geometry" />
        </mxCell>
        <mxCell id="pozFuQ57fGPCnBzc6li_-71" value="product-level security requirements catalog" style="shape=note;whiteSpace=wrap;html=1;backgroundOutline=1;darkOpacity=0.05;" parent="1" vertex="1">
          <mxGeometry x="-1970" y="780" width="80" height="100" as="geometry" />
        </mxCell>
        <mxCell id="pozFuQ57fGPCnBzc6li_-72" value="requirements applicability&lt;br&gt;analysis" style="shape=process;whiteSpace=wrap;html=1;backgroundOutline=1;" parent="1" vertex="1">
          <mxGeometry x="-2440" y="800" width="120" height="60" as="geometry" />
        </mxCell>
        <mxCell id="pozFuQ57fGPCnBzc6li_-73" style="edgeStyle=orthogonalEdgeStyle;rounded=0;orthogonalLoop=1;jettySize=auto;html=1;exitX=1.025;exitY=0.51;exitDx=0;exitDy=0;exitPerimeter=0;entryX=0;entryY=0.75;entryDx=0;entryDy=0;strokeColor=#FF8000;" parent="1" source="pozFuQ57fGPCnBzc6li_-74" target="pozFuQ57fGPCnBzc6li_-72" edge="1">
          <mxGeometry relative="1" as="geometry" />
        </mxCell>
        <mxCell id="pozFuQ57fGPCnBzc6li_-74" value="global&lt;br&gt;security requirements catalog" style="shape=note;whiteSpace=wrap;html=1;backgroundOutline=1;darkOpacity=0.05;" parent="1" vertex="1">
          <mxGeometry x="-2600" y="860" width="80" height="100" as="geometry" />
        </mxCell>
        <mxCell id="pozFuQ57fGPCnBzc6li_-75" value="requirements applicability analysis" style="text;html=1;strokeColor=none;fillColor=none;align=center;verticalAlign=middle;whiteSpace=wrap;rounded=0;" parent="1" vertex="1">
          <mxGeometry x="-2620" y="1040" width="450" height="20" as="geometry" />
        </mxCell>
        <mxCell id="pozFuQ57fGPCnBzc6li_-76" value="product-level catalog creation" style="text;html=1;strokeColor=none;fillColor=none;align=center;verticalAlign=middle;whiteSpace=wrap;rounded=0;" parent="1" vertex="1">
          <mxGeometry x="-2170" y="1040" width="300" height="20" as="geometry" />
        </mxCell>
        <mxCell id="pozFuQ57fGPCnBzc6li_-77" style="edgeStyle=orthogonalEdgeStyle;rounded=0;orthogonalLoop=1;jettySize=auto;html=1;entryX=0;entryY=0.5;entryDx=0;entryDy=0;strokeColor=#FF8000;" parent="1" source="pozFuQ57fGPCnBzc6li_-78" target="pozFuQ57fGPCnBzc6li_-70" edge="1">
          <mxGeometry relative="1" as="geometry" />
        </mxCell>
        <mxCell id="pozFuQ57fGPCnBzc6li_-78" value="list of applicable requirements" style="shape=note;whiteSpace=wrap;html=1;backgroundOutline=1;darkOpacity=0.05;" parent="1" vertex="1">
          <mxGeometry x="-2270" y="780" width="80" height="100" as="geometry" />
        </mxCell>
        <mxCell id="pozFuQ57fGPCnBzc6li_-79" value="&lt;span style=&quot;&quot;&gt;security SME&lt;/span&gt;" style="shape=umlActor;verticalLabelPosition=bottom;labelBackgroundColor=none;verticalAlign=top;html=1;outlineConnect=0;fillColor=none;" parent="1" vertex="1">
          <mxGeometry x="-2095" y="630" width="30" height="60" as="geometry" />
        </mxCell>
        <mxCell id="pozFuQ57fGPCnBzc6li_-84" value="&lt;font style=&quot;font-size: 24px&quot;&gt;Product-level Security Requirements&lt;/font&gt;" style="text;html=1;strokeColor=none;fillColor=none;align=center;verticalAlign=middle;whiteSpace=wrap;rounded=0;" parent="1" vertex="1">
          <mxGeometry x="-2540" y="1090" width="600" height="30" as="geometry" />
        </mxCell>
        <mxCell id="pozFuQ57fGPCnBzc6li_-23" style="edgeStyle=orthogonalEdgeStyle;rounded=0;orthogonalLoop=1;jettySize=auto;html=1;exitX=0.998;exitY=0.5;exitDx=0;exitDy=0;exitPerimeter=0;entryX=0;entryY=0.25;entryDx=0;entryDy=0;strokeColor=#FF8000;" parent="1" source="pozFuQ57fGPCnBzc6li_-71" target="pozFuQ57fGPCnBzc6li_-22" edge="1">
          <mxGeometry relative="1" as="geometry">
            <mxPoint x="-1708" y="936" as="sourcePoint" />
          </mxGeometry>
        </mxCell>
        <mxCell id="TtvR3uoScDkevuimVfsm-2" value="TARA relevant" parent="0" />
        <mxCell id="pozFuQ57fGPCnBzc6li_-102" value="asset identification" style="whiteSpace=wrap;html=1;rounded=1;arcSize=42;align=center;verticalAlign=middle;strokeWidth=3;autosize=1;spacing=4;treeFolding=1;treeMoving=1;newEdgeStyle={&quot;edgeStyle&quot;:&quot;entityRelationEdgeStyle&quot;,&quot;startArrow&quot;:&quot;none&quot;,&quot;endArrow&quot;:&quot;none&quot;,&quot;segment&quot;:10,&quot;curved&quot;:1};strokeColor=#FF0000;" parent="TtvR3uoScDkevuimVfsm-2" vertex="1">
          <mxGeometry x="-1650" y="1710" width="124" height="30" as="geometry" />
        </mxCell>
        <mxCell id="pozFuQ57fGPCnBzc6li_-103" value="" style="edgeStyle=entityRelationEdgeStyle;startArrow=none;endArrow=none;segment=10;curved=1;rounded=0;strokeColor=#FF0000;strokeWidth=3;exitX=0.524;exitY=0.772;exitDx=0;exitDy=0;exitPerimeter=0;" parent="TtvR3uoScDkevuimVfsm-2" source="sKsDHjl78Vn9EsCBVIiZ-1" target="pozFuQ57fGPCnBzc6li_-102" edge="1">
          <mxGeometry relative="1" as="geometry">
            <mxPoint x="-760" y="2000" as="sourcePoint" />
          </mxGeometry>
        </mxCell>
        <mxCell id="pozFuQ57fGPCnBzc6li_-104" value="" style="edgeStyle=entityRelationEdgeStyle;startArrow=none;endArrow=none;segment=10;curved=1;rounded=0;strokeColor=#FF0000;exitX=0.476;exitY=0.772;exitDx=0;exitDy=0;exitPerimeter=0;strokeWidth=3;" parent="TtvR3uoScDkevuimVfsm-2" target="pozFuQ57fGPCnBzc6li_-105" edge="1">
          <mxGeometry relative="1" as="geometry">
            <mxPoint x="-836.079999999999" y="1530.12" as="sourcePoint" />
          </mxGeometry>
        </mxCell>
        <mxCell id="pozFuQ57fGPCnBzc6li_-105" value="attack path analysis" style="whiteSpace=wrap;html=1;rounded=1;arcSize=42;align=center;verticalAlign=middle;strokeWidth=3;autosize=1;spacing=4;treeFolding=1;treeMoving=1;newEdgeStyle={&quot;edgeStyle&quot;:&quot;entityRelationEdgeStyle&quot;,&quot;startArrow&quot;:&quot;none&quot;,&quot;endArrow&quot;:&quot;none&quot;,&quot;segment&quot;:10,&quot;curved&quot;:1};strokeColor=#FF0000;" parent="TtvR3uoScDkevuimVfsm-2" vertex="1">
          <mxGeometry x="-730" y="1710" width="150" height="30" as="geometry" />
        </mxCell>
        <mxCell id="pozFuQ57fGPCnBzc6li_-106" value="attack feasibility rating" style="whiteSpace=wrap;html=1;rounded=1;arcSize=42;align=center;verticalAlign=middle;strokeWidth=3;autosize=1;spacing=4;treeFolding=1;treeMoving=1;newEdgeStyle={&quot;edgeStyle&quot;:&quot;entityRelationEdgeStyle&quot;,&quot;startArrow&quot;:&quot;none&quot;,&quot;endArrow&quot;:&quot;none&quot;,&quot;segment&quot;:10,&quot;curved&quot;:1};strokeColor=#FF0000;" parent="TtvR3uoScDkevuimVfsm-2" vertex="1">
          <mxGeometry x="-460" y="1710" width="168" height="30" as="geometry" />
        </mxCell>
        <mxCell id="pozFuQ57fGPCnBzc6li_-107" value="" style="edgeStyle=entityRelationEdgeStyle;startArrow=none;endArrow=none;segment=10;curved=1;rounded=0;strokeColor=#FF0000;strokeWidth=3;exitX=0.517;exitY=0.804;exitDx=0;exitDy=0;exitPerimeter=0;" parent="TtvR3uoScDkevuimVfsm-2" source="ubSWeTmmX8_9XJLQhyds-3" target="pozFuQ57fGPCnBzc6li_-106" edge="1">
          <mxGeometry relative="1" as="geometry">
            <mxPoint x="270" y="2090" as="sourcePoint" />
          </mxGeometry>
        </mxCell>
        <mxCell id="pozFuQ57fGPCnBzc6li_-108" value="impact rating" style="whiteSpace=wrap;html=1;rounded=1;arcSize=42;align=center;verticalAlign=middle;strokeWidth=3;autosize=1;spacing=4;treeFolding=1;treeMoving=1;newEdgeStyle={&quot;edgeStyle&quot;:&quot;entityRelationEdgeStyle&quot;,&quot;startArrow&quot;:&quot;none&quot;,&quot;endArrow&quot;:&quot;none&quot;,&quot;segment&quot;:10,&quot;curved&quot;:1};strokeColor=#FF0000;" parent="TtvR3uoScDkevuimVfsm-2" vertex="1">
          <mxGeometry x="-210" y="1710" width="110" height="30" as="geometry" />
        </mxCell>
        <mxCell id="pozFuQ57fGPCnBzc6li_-109" value="" style="edgeStyle=entityRelationEdgeStyle;startArrow=none;endArrow=none;segment=10;curved=1;rounded=0;strokeColor=#FF0000;strokeWidth=3;exitX=0.621;exitY=0.848;exitDx=0;exitDy=0;exitPerimeter=0;" parent="TtvR3uoScDkevuimVfsm-2" source="ubSWeTmmX8_9XJLQhyds-2" target="pozFuQ57fGPCnBzc6li_-108" edge="1">
          <mxGeometry relative="1" as="geometry">
            <mxPoint x="440" y="2090" as="sourcePoint" />
          </mxGeometry>
        </mxCell>
        <mxCell id="pozFuQ57fGPCnBzc6li_-110" value="threat scenario identification" style="whiteSpace=wrap;html=1;rounded=1;arcSize=42;align=center;verticalAlign=middle;strokeWidth=3;autosize=1;spacing=4;treeFolding=1;treeMoving=1;newEdgeStyle={&quot;edgeStyle&quot;:&quot;entityRelationEdgeStyle&quot;,&quot;startArrow&quot;:&quot;none&quot;,&quot;endArrow&quot;:&quot;none&quot;,&quot;segment&quot;:10,&quot;curved&quot;:1};strokeColor=#FF0000;" parent="TtvR3uoScDkevuimVfsm-2" vertex="1">
          <mxGeometry x="-1257" y="1710" width="190" height="30" as="geometry" />
        </mxCell>
        <mxCell id="pozFuQ57fGPCnBzc6li_-111" value="" style="edgeStyle=entityRelationEdgeStyle;startArrow=none;endArrow=none;segment=10;curved=1;rounded=0;strokeColor=#FF0000;strokeWidth=3;exitX=0.387;exitY=0.783;exitDx=0;exitDy=0;exitPerimeter=0;" parent="TtvR3uoScDkevuimVfsm-2" source="sKsDHjl78Vn9EsCBVIiZ-2" target="pozFuQ57fGPCnBzc6li_-110" edge="1">
          <mxGeometry relative="1" as="geometry">
            <mxPoint x="-590" y="2120" as="sourcePoint" />
          </mxGeometry>
        </mxCell>
        <mxCell id="pozFuQ57fGPCnBzc6li_-112" value="risk determination" style="whiteSpace=wrap;html=1;rounded=1;arcSize=42;align=center;verticalAlign=middle;strokeWidth=3;autosize=1;spacing=4;treeFolding=1;treeMoving=1;newEdgeStyle={&quot;edgeStyle&quot;:&quot;entityRelationEdgeStyle&quot;,&quot;startArrow&quot;:&quot;none&quot;,&quot;endArrow&quot;:&quot;none&quot;,&quot;segment&quot;:10,&quot;curved&quot;:1};strokeColor=#FF0000;" parent="TtvR3uoScDkevuimVfsm-2" vertex="1">
          <mxGeometry x="163" y="1710" width="140" height="30" as="geometry" />
        </mxCell>
        <mxCell id="pozFuQ57fGPCnBzc6li_-113" value="" style="edgeStyle=entityRelationEdgeStyle;startArrow=none;endArrow=none;segment=10;curved=1;rounded=0;strokeColor=#FF0000;strokeWidth=3;exitX=0.69;exitY=0.826;exitDx=0;exitDy=0;exitPerimeter=0;" parent="TtvR3uoScDkevuimVfsm-2" source="ubSWeTmmX8_9XJLQhyds-4" target="pozFuQ57fGPCnBzc6li_-112" edge="1">
          <mxGeometry relative="1" as="geometry">
            <mxPoint x="-450" y="2020" as="sourcePoint" />
          </mxGeometry>
        </mxCell>
        <mxCell id="tvrAmICVuCRx7uDoUvIO-3" value="damage scenario identification" style="whiteSpace=wrap;html=1;rounded=1;arcSize=42;align=center;verticalAlign=middle;strokeWidth=3;autosize=1;spacing=4;treeFolding=1;treeMoving=1;newEdgeStyle={&quot;edgeStyle&quot;:&quot;entityRelationEdgeStyle&quot;,&quot;startArrow&quot;:&quot;none&quot;,&quot;endArrow&quot;:&quot;none&quot;,&quot;segment&quot;:10,&quot;curved&quot;:1};strokeColor=#FF0000;" parent="TtvR3uoScDkevuimVfsm-2" vertex="1">
          <mxGeometry x="-605" y="1659.82" width="200" height="30" as="geometry" />
        </mxCell>
        <mxCell id="tvrAmICVuCRx7uDoUvIO-4" value="" style="edgeStyle=entityRelationEdgeStyle;startArrow=none;endArrow=none;segment=10;curved=1;rounded=0;strokeColor=#FF0000;strokeWidth=3;exitX=0.448;exitY=0.804;exitDx=0;exitDy=0;exitPerimeter=0;" parent="TtvR3uoScDkevuimVfsm-2" source="ubSWeTmmX8_9XJLQhyds-3" target="tvrAmICVuCRx7uDoUvIO-3" edge="1">
          <mxGeometry relative="1" as="geometry">
            <mxPoint x="-170" y="1770" as="sourcePoint" />
          </mxGeometry>
        </mxCell>
        <mxCell id="Gq4W9nncryQnotrjd2PB-3" value="cybersecurity claim" style="whiteSpace=wrap;html=1;rounded=1;arcSize=42;align=center;verticalAlign=middle;strokeWidth=3;autosize=1;spacing=4;treeFolding=1;treeMoving=1;newEdgeStyle={&quot;edgeStyle&quot;:&quot;entityRelationEdgeStyle&quot;,&quot;startArrow&quot;:&quot;none&quot;,&quot;endArrow&quot;:&quot;none&quot;,&quot;segment&quot;:10,&quot;curved&quot;:1};strokeColor=#FF0000;" parent="TtvR3uoScDkevuimVfsm-2" vertex="1">
          <mxGeometry x="-40" y="1710" width="135" height="30" as="geometry" />
        </mxCell>
        <mxCell id="Gq4W9nncryQnotrjd2PB-4" value="" style="edgeStyle=entityRelationEdgeStyle;startArrow=none;endArrow=none;segment=10;curved=1;rounded=0;strokeColor=#FF0000;strokeWidth=3;exitX=0.69;exitY=0.848;exitDx=0;exitDy=0;exitPerimeter=0;" parent="TtvR3uoScDkevuimVfsm-2" source="ubSWeTmmX8_9XJLQhyds-2" target="Gq4W9nncryQnotrjd2PB-3" edge="1">
          <mxGeometry relative="1" as="geometry">
            <mxPoint x="50" y="1530" as="sourcePoint" />
          </mxGeometry>
        </mxCell>
        <mxCell id="lnrxjNFZU3uZvi3UB_ph-1" value="process interaction" parent="0" visible="0" />
        <mxCell id="lnrxjNFZU3uZvi3UB_ph-6" style="edgeStyle=orthogonalEdgeStyle;rounded=0;orthogonalLoop=1;jettySize=auto;html=1;entryX=0;entryY=0.5;entryDx=0;entryDy=0;exitX=1;exitY=0.5;exitDx=0;exitDy=0;" parent="lnrxjNFZU3uZvi3UB_ph-1" source="lnrxjNFZU3uZvi3UB_ph-2" target="lnrxjNFZU3uZvi3UB_ph-5" edge="1">
          <mxGeometry relative="1" as="geometry">
            <Array as="points" />
          </mxGeometry>
        </mxCell>
        <mxCell id="lnrxjNFZU3uZvi3UB_ph-23" style="edgeStyle=orthogonalEdgeStyle;rounded=0;orthogonalLoop=1;jettySize=auto;html=1;entryX=0;entryY=0.5;entryDx=0;entryDy=0;exitX=1;exitY=0.5;exitDx=0;exitDy=0;" parent="lnrxjNFZU3uZvi3UB_ph-1" source="lnrxjNFZU3uZvi3UB_ph-5" target="lnrxjNFZU3uZvi3UB_ph-11" edge="1">
          <mxGeometry relative="1" as="geometry">
            <Array as="points">
              <mxPoint x="-280" y="370" />
              <mxPoint x="-290" y="370" />
              <mxPoint x="-290" y="380" />
            </Array>
            <mxPoint x="-170" y="398" as="targetPoint" />
          </mxGeometry>
        </mxCell>
        <mxCell id="lnrxjNFZU3uZvi3UB_ph-2" value="Product-level&lt;br&gt;Security Requirements" style="rounded=0;whiteSpace=wrap;html=1;" parent="lnrxjNFZU3uZvi3UB_ph-1" vertex="1">
          <mxGeometry x="-560" y="350" width="120" height="60" as="geometry" />
        </mxCell>
        <mxCell id="lnrxjNFZU3uZvi3UB_ph-5" value="Design Showing Security Considerations" style="rounded=0;whiteSpace=wrap;html=1;" parent="lnrxjNFZU3uZvi3UB_ph-1" vertex="1">
          <mxGeometry x="-400" y="350" width="120" height="60" as="geometry" />
        </mxCell>
        <mxCell id="eEKUyIhuzSQ4ukCI-L0V-2" style="edgeStyle=orthogonalEdgeStyle;rounded=0;orthogonalLoop=1;jettySize=auto;html=1;entryX=0;entryY=0.5;entryDx=0;entryDy=0;" parent="lnrxjNFZU3uZvi3UB_ph-1" source="lnrxjNFZU3uZvi3UB_ph-11" target="lnrxjNFZU3uZvi3UB_ph-12" edge="1">
          <mxGeometry relative="1" as="geometry" />
        </mxCell>
        <mxCell id="lnrxjNFZU3uZvi3UB_ph-11" value="Threat Modeling Report" style="rounded=0;whiteSpace=wrap;html=1;" parent="lnrxjNFZU3uZvi3UB_ph-1" vertex="1">
          <mxGeometry x="-220.03" y="350" width="120" height="60" as="geometry" />
        </mxCell>
        <mxCell id="lnrxjNFZU3uZvi3UB_ph-12" value="Threat Prioritization Plan" style="rounded=0;whiteSpace=wrap;html=1;" parent="lnrxjNFZU3uZvi3UB_ph-1" vertex="1">
          <mxGeometry x="-60.03" y="350" width="120" height="60" as="geometry" />
        </mxCell>
        <mxCell id="lnrxjNFZU3uZvi3UB_ph-16" style="edgeStyle=orthogonalEdgeStyle;rounded=0;orthogonalLoop=1;jettySize=auto;html=1;entryX=0;entryY=0.75;entryDx=0;entryDy=0;exitX=1;exitY=0.75;exitDx=0;exitDy=0;strokeColor=#FF8000;" parent="lnrxjNFZU3uZvi3UB_ph-1" source="lnrxjNFZU3uZvi3UB_ph-5" target="lnrxjNFZU3uZvi3UB_ph-2" edge="1">
          <mxGeometry relative="1" as="geometry">
            <Array as="points">
              <mxPoint x="-260" y="395" />
              <mxPoint x="-260" y="430" />
              <mxPoint x="-580" y="430" />
              <mxPoint x="-580" y="395" />
            </Array>
          </mxGeometry>
        </mxCell>
        <mxCell id="pozFuQ57fGPCnBzc6li_-88" style="edgeStyle=orthogonalEdgeStyle;rounded=0;orthogonalLoop=1;jettySize=auto;html=1;entryX=0;entryY=0.75;entryDx=0;entryDy=0;exitX=1;exitY=0.75;exitDx=0;exitDy=0;strokeColor=#FF8000;" parent="lnrxjNFZU3uZvi3UB_ph-1" source="lnrxjNFZU3uZvi3UB_ph-12" target="lnrxjNFZU3uZvi3UB_ph-11" edge="1">
          <mxGeometry relative="1" as="geometry">
            <Array as="points">
              <mxPoint x="79.97" y="395" />
              <mxPoint x="79.97" y="430" />
              <mxPoint x="-240.03" y="430" />
              <mxPoint x="-240.03" y="395" />
            </Array>
            <mxPoint x="-290.03" y="405" as="sourcePoint" />
            <mxPoint x="-570.03" y="405" as="targetPoint" />
          </mxGeometry>
        </mxCell>
      </root>
    </mxGraphModel>
  </diagram>
  <diagram id="fYaIuUijySO1GuTJWRqj" name="processes">
    <mxGraphModel dx="6779" dy="-489" grid="1" gridSize="10" guides="1" tooltips="1" connect="1" arrows="1" fold="1" page="0" pageScale="1" pageWidth="850" pageHeight="1100" math="0" shadow="0">
      <root>
        <mxCell id="nt4A36XUKgA60ntTlZA5-0" />
        <mxCell id="nt4A36XUKgA60ntTlZA5-1" value="workflow" parent="nt4A36XUKgA60ntTlZA5-0" />
        <mxCell id="vt_gtIYbkEOsdz1Gv3Q9-0" value="" style="rounded=0;whiteSpace=wrap;html=1;strokeColor=none;fillColor=#D5E8D4;" parent="nt4A36XUKgA60ntTlZA5-1" vertex="1">
          <mxGeometry x="-3650" y="2880" width="300" height="460" as="geometry" />
        </mxCell>
        <mxCell id="vt_gtIYbkEOsdz1Gv3Q9-1" value="" style="rounded=0;whiteSpace=wrap;html=1;fillColor=#f9f7ed;strokeColor=none;" parent="nt4A36XUKgA60ntTlZA5-1" vertex="1">
          <mxGeometry x="-4080" y="2880" width="430" height="460" as="geometry" />
        </mxCell>
        <mxCell id="vt_gtIYbkEOsdz1Gv3Q9-2" value="requirements report" style="shape=document;whiteSpace=wrap;html=1;boundedLbl=1;" parent="nt4A36XUKgA60ntTlZA5-1" vertex="1">
          <mxGeometry x="-3620" y="3215" width="120" height="80" as="geometry" />
        </mxCell>
        <mxCell id="vt_gtIYbkEOsdz1Gv3Q9-3" style="edgeStyle=orthogonalEdgeStyle;rounded=0;orthogonalLoop=1;jettySize=auto;html=1;exitX=0.25;exitY=1;exitDx=0;exitDy=0;entryX=0.5;entryY=1;entryDx=0;entryDy=0;entryPerimeter=0;dashed=1;" parent="nt4A36XUKgA60ntTlZA5-1" source="vt_gtIYbkEOsdz1Gv3Q9-18" target="vt_gtIYbkEOsdz1Gv3Q9-25" edge="1">
          <mxGeometry relative="1" as="geometry">
            <Array as="points">
              <mxPoint x="-3880" y="3170" />
              <mxPoint x="-3930" y="3170" />
              <mxPoint x="-3930" y="3280" />
              <mxPoint x="-4140" y="3280" />
            </Array>
            <mxPoint x="-4020" y="3250" as="targetPoint" />
          </mxGeometry>
        </mxCell>
        <mxCell id="vt_gtIYbkEOsdz1Gv3Q9-4" style="edgeStyle=orthogonalEdgeStyle;rounded=0;orthogonalLoop=1;jettySize=auto;html=1;entryX=0.25;entryY=0;entryDx=0;entryDy=0;strokeColor=#0000FF;" parent="nt4A36XUKgA60ntTlZA5-1" source="vt_gtIYbkEOsdz1Gv3Q9-5" target="vt_gtIYbkEOsdz1Gv3Q9-18" edge="1">
          <mxGeometry relative="1" as="geometry">
            <mxPoint x="-3560" y="2720" as="sourcePoint" />
            <Array as="points">
              <mxPoint x="-3905" y="3040" />
              <mxPoint x="-3880" y="3040" />
            </Array>
          </mxGeometry>
        </mxCell>
        <mxCell id="vt_gtIYbkEOsdz1Gv3Q9-5" value="&lt;span style=&quot;background-color: rgb(249 , 247 , 237)&quot;&gt;security&lt;br&gt;&amp;nbsp; &amp;nbsp;SME&amp;nbsp;&amp;nbsp;&lt;/span&gt;" style="shape=umlActor;verticalLabelPosition=bottom;labelBackgroundColor=#ffffff;verticalAlign=top;html=1;outlineConnect=0;fillColor=none;" parent="nt4A36XUKgA60ntTlZA5-1" vertex="1">
          <mxGeometry x="-3920" y="2910" width="30" height="60" as="geometry" />
        </mxCell>
        <mxCell id="vt_gtIYbkEOsdz1Gv3Q9-6" style="edgeStyle=orthogonalEdgeStyle;rounded=0;orthogonalLoop=1;jettySize=auto;html=1;entryX=0.75;entryY=0;entryDx=0;entryDy=0;strokeColor=#0000FF;" parent="nt4A36XUKgA60ntTlZA5-1" source="vt_gtIYbkEOsdz1Gv3Q9-8" target="vt_gtIYbkEOsdz1Gv3Q9-18" edge="1">
          <mxGeometry relative="1" as="geometry">
            <mxPoint x="-3580" y="2810" as="sourcePoint" />
            <Array as="points">
              <mxPoint x="-3795" y="3040" />
              <mxPoint x="-3820" y="3040" />
            </Array>
          </mxGeometry>
        </mxCell>
        <mxCell id="vt_gtIYbkEOsdz1Gv3Q9-7" style="edgeStyle=orthogonalEdgeStyle;rounded=0;orthogonalLoop=1;jettySize=auto;html=1;entryX=0.5;entryY=0;entryDx=0;entryDy=0;strokeColor=#0000FF;" parent="nt4A36XUKgA60ntTlZA5-1" source="vt_gtIYbkEOsdz1Gv3Q9-21" target="vt_gtIYbkEOsdz1Gv3Q9-15" edge="1">
          <mxGeometry relative="1" as="geometry">
            <mxPoint x="-3320" y="2730" as="sourcePoint" />
            <Array as="points">
              <mxPoint x="-3560" y="2920" />
              <mxPoint x="-3560" y="2920" />
            </Array>
          </mxGeometry>
        </mxCell>
        <mxCell id="vt_gtIYbkEOsdz1Gv3Q9-8" value="&lt;span style=&quot;background-color: rgb(249 , 247 , 237)&quot;&gt;development&lt;br&gt;&amp;nbsp; &amp;nbsp; &amp;nbsp; &amp;nbsp;SME&amp;nbsp; &amp;nbsp; &amp;nbsp;&amp;nbsp;&lt;/span&gt;" style="shape=umlActor;verticalLabelPosition=bottom;labelBackgroundColor=#ffffff;verticalAlign=top;html=1;outlineConnect=0;fillColor=none;" parent="nt4A36XUKgA60ntTlZA5-1" vertex="1">
          <mxGeometry x="-3810" y="2910" width="30" height="60" as="geometry" />
        </mxCell>
        <mxCell id="vt_gtIYbkEOsdz1Gv3Q9-9" style="edgeStyle=orthogonalEdgeStyle;rounded=0;orthogonalLoop=1;jettySize=auto;html=1;entryX=0;entryY=0.75;entryDx=0;entryDy=0;strokeColor=#FF8000;" parent="nt4A36XUKgA60ntTlZA5-1" source="vt_gtIYbkEOsdz1Gv3Q9-10" target="vt_gtIYbkEOsdz1Gv3Q9-18" edge="1">
          <mxGeometry relative="1" as="geometry">
            <Array as="points">
              <mxPoint x="-3950" y="3190" />
              <mxPoint x="-3950" y="3125" />
            </Array>
          </mxGeometry>
        </mxCell>
        <mxCell id="vt_gtIYbkEOsdz1Gv3Q9-10" value="product element design" style="shape=note;whiteSpace=wrap;html=1;backgroundOutline=1;darkOpacity=0.05;" parent="nt4A36XUKgA60ntTlZA5-1" vertex="1">
          <mxGeometry x="-4050" y="3140" width="80" height="100" as="geometry" />
        </mxCell>
        <mxCell id="vt_gtIYbkEOsdz1Gv3Q9-11" style="edgeStyle=orthogonalEdgeStyle;rounded=0;orthogonalLoop=1;jettySize=auto;html=1;entryX=0;entryY=0.5;entryDx=0;entryDy=0;exitX=1;exitY=0.5;exitDx=0;exitDy=0;entryPerimeter=0;" parent="nt4A36XUKgA60ntTlZA5-1" source="vt_gtIYbkEOsdz1Gv3Q9-18" target="vt_gtIYbkEOsdz1Gv3Q9-23" edge="1">
          <mxGeometry relative="1" as="geometry">
            <mxPoint x="-3620" y="3110" as="sourcePoint" />
          </mxGeometry>
        </mxCell>
        <mxCell id="vt_gtIYbkEOsdz1Gv3Q9-12" style="edgeStyle=orthogonalEdgeStyle;rounded=0;orthogonalLoop=1;jettySize=auto;html=1;entryX=0;entryY=0.5;entryDx=0;entryDy=0;entryPerimeter=0;" parent="nt4A36XUKgA60ntTlZA5-1" source="vt_gtIYbkEOsdz1Gv3Q9-15" target="vt_gtIYbkEOsdz1Gv3Q9-16" edge="1">
          <mxGeometry relative="1" as="geometry" />
        </mxCell>
        <mxCell id="vt_gtIYbkEOsdz1Gv3Q9-13" style="edgeStyle=orthogonalEdgeStyle;rounded=0;orthogonalLoop=1;jettySize=auto;html=1;entryX=0.5;entryY=0;entryDx=0;entryDy=0;exitX=0.5;exitY=1;exitDx=0;exitDy=0;" parent="nt4A36XUKgA60ntTlZA5-1" source="vt_gtIYbkEOsdz1Gv3Q9-15" target="vt_gtIYbkEOsdz1Gv3Q9-2" edge="1">
          <mxGeometry relative="1" as="geometry" />
        </mxCell>
        <mxCell id="vt_gtIYbkEOsdz1Gv3Q9-14" style="edgeStyle=orthogonalEdgeStyle;rounded=0;orthogonalLoop=1;jettySize=auto;html=1;exitX=0.25;exitY=1;exitDx=0;exitDy=0;entryX=0.5;entryY=1;entryDx=0;entryDy=0;entryPerimeter=0;dashed=1;" parent="nt4A36XUKgA60ntTlZA5-1" source="vt_gtIYbkEOsdz1Gv3Q9-18" target="vt_gtIYbkEOsdz1Gv3Q9-10" edge="1">
          <mxGeometry relative="1" as="geometry">
            <mxPoint x="-3730" y="3370" as="targetPoint" />
            <Array as="points">
              <mxPoint x="-3880" y="3170" />
              <mxPoint x="-3930" y="3170" />
              <mxPoint x="-3930" y="3280" />
              <mxPoint x="-4010" y="3280" />
            </Array>
          </mxGeometry>
        </mxCell>
        <mxCell id="vt_gtIYbkEOsdz1Gv3Q9-15" value="attach security requirements as dependencies" style="shape=process;whiteSpace=wrap;html=1;backgroundOutline=1;" parent="nt4A36XUKgA60ntTlZA5-1" vertex="1">
          <mxGeometry x="-3620" y="3080" width="120" height="60" as="geometry" />
        </mxCell>
        <mxCell id="vt_gtIYbkEOsdz1Gv3Q9-16" value="updated development requirements" style="shape=note;whiteSpace=wrap;html=1;backgroundOutline=1;darkOpacity=0.05;" parent="nt4A36XUKgA60ntTlZA5-1" vertex="1">
          <mxGeometry x="-3450" y="3060" width="80" height="100" as="geometry" />
        </mxCell>
        <mxCell id="vt_gtIYbkEOsdz1Gv3Q9-17" style="edgeStyle=orthogonalEdgeStyle;rounded=0;orthogonalLoop=1;jettySize=auto;html=1;exitX=0.5;exitY=1;exitDx=0;exitDy=0;entryX=0.5;entryY=0;entryDx=0;entryDy=0;" parent="nt4A36XUKgA60ntTlZA5-1" source="vt_gtIYbkEOsdz1Gv3Q9-18" target="vt_gtIYbkEOsdz1Gv3Q9-24" edge="1">
          <mxGeometry relative="1" as="geometry" />
        </mxCell>
        <mxCell id="vt_gtIYbkEOsdz1Gv3Q9-18" value="design&lt;br&gt;security&lt;br&gt;analysis" style="shape=process;whiteSpace=wrap;html=1;backgroundOutline=1;" parent="nt4A36XUKgA60ntTlZA5-1" vertex="1">
          <mxGeometry x="-3910" y="3080" width="120" height="60" as="geometry" />
        </mxCell>
        <mxCell id="vt_gtIYbkEOsdz1Gv3Q9-19" value="design security analysis" style="text;html=1;strokeColor=none;fillColor=none;align=center;verticalAlign=middle;whiteSpace=wrap;rounded=0;" parent="nt4A36XUKgA60ntTlZA5-1" vertex="1">
          <mxGeometry x="-4080" y="3320" width="430" height="20" as="geometry" />
        </mxCell>
        <mxCell id="vt_gtIYbkEOsdz1Gv3Q9-20" value="attach security requirements" style="text;html=1;strokeColor=none;fillColor=none;align=center;verticalAlign=middle;whiteSpace=wrap;rounded=0;" parent="nt4A36XUKgA60ntTlZA5-1" vertex="1">
          <mxGeometry x="-3650" y="3320" width="300" height="20" as="geometry" />
        </mxCell>
        <mxCell id="vt_gtIYbkEOsdz1Gv3Q9-21" value="&lt;span style=&quot;background-color: rgb(213 , 232 , 212)&quot;&gt;development&lt;/span&gt;&lt;br&gt;&lt;span style=&quot;background-color: rgb(213 , 232 , 212)&quot;&gt;&amp;nbsp; &amp;nbsp; &amp;nbsp; &amp;nbsp;SME&amp;nbsp; &amp;nbsp; &amp;nbsp;&amp;nbsp;&lt;/span&gt;" style="shape=umlActor;verticalLabelPosition=bottom;labelBackgroundColor=#ffffff;verticalAlign=top;html=1;outlineConnect=0;fillColor=none;" parent="nt4A36XUKgA60ntTlZA5-1" vertex="1">
          <mxGeometry x="-3575" y="2910" width="30" height="60" as="geometry" />
        </mxCell>
        <mxCell id="vt_gtIYbkEOsdz1Gv3Q9-22" style="edgeStyle=orthogonalEdgeStyle;rounded=0;orthogonalLoop=1;jettySize=auto;html=1;entryX=0;entryY=0.5;entryDx=0;entryDy=0;strokeColor=#FF8000;" parent="nt4A36XUKgA60ntTlZA5-1" source="vt_gtIYbkEOsdz1Gv3Q9-23" target="vt_gtIYbkEOsdz1Gv3Q9-15" edge="1">
          <mxGeometry relative="1" as="geometry" />
        </mxCell>
        <mxCell id="vt_gtIYbkEOsdz1Gv3Q9-23" value="identified security requirements" style="shape=note;whiteSpace=wrap;html=1;backgroundOutline=1;darkOpacity=0.05;" parent="nt4A36XUKgA60ntTlZA5-1" vertex="1">
          <mxGeometry x="-3750" y="3060" width="80" height="100" as="geometry" />
        </mxCell>
        <mxCell id="vt_gtIYbkEOsdz1Gv3Q9-24" value="design security analysis report" style="shape=document;whiteSpace=wrap;html=1;boundedLbl=1;" parent="nt4A36XUKgA60ntTlZA5-1" vertex="1">
          <mxGeometry x="-3910" y="3215" width="120" height="80" as="geometry" />
        </mxCell>
        <mxCell id="vt_gtIYbkEOsdz1Gv3Q9-25" value="product-level security requirements catalog" style="shape=note;whiteSpace=wrap;html=1;backgroundOutline=1;darkOpacity=0.05;" parent="nt4A36XUKgA60ntTlZA5-1" vertex="1">
          <mxGeometry x="-4180" y="3045" width="80" height="100" as="geometry" />
        </mxCell>
        <mxCell id="vt_gtIYbkEOsdz1Gv3Q9-26" style="edgeStyle=orthogonalEdgeStyle;rounded=0;orthogonalLoop=1;jettySize=auto;html=1;exitX=0.998;exitY=0.5;exitDx=0;exitDy=0;exitPerimeter=0;entryX=0;entryY=0.25;entryDx=0;entryDy=0;strokeColor=#FF8000;" parent="nt4A36XUKgA60ntTlZA5-1" source="vt_gtIYbkEOsdz1Gv3Q9-25" target="vt_gtIYbkEOsdz1Gv3Q9-18" edge="1">
          <mxGeometry relative="1" as="geometry">
            <mxPoint x="-3978" y="3201" as="sourcePoint" />
          </mxGeometry>
        </mxCell>
        <mxCell id="zd9Hb2fchRFQWG5ULuG4-65" value="" style="rounded=0;whiteSpace=wrap;html=1;fillColor=#f9f7ed;strokeColor=none;" parent="nt4A36XUKgA60ntTlZA5-1" vertex="1">
          <mxGeometry x="-4190" y="3455" width="420" height="460" as="geometry" />
        </mxCell>
        <mxCell id="zd9Hb2fchRFQWG5ULuG4-66" value="" style="rounded=0;whiteSpace=wrap;html=1;strokeColor=none;fillColor=#D5E8D4;" parent="nt4A36XUKgA60ntTlZA5-1" vertex="1">
          <mxGeometry x="-3770" y="3440" width="420" height="460" as="geometry" />
        </mxCell>
        <mxCell id="zd9Hb2fchRFQWG5ULuG4-67" value="" style="rounded=0;whiteSpace=wrap;html=1;strokeColor=none;fillColor=#D4E1F5;" parent="nt4A36XUKgA60ntTlZA5-1" vertex="1">
          <mxGeometry x="-3350" y="3440" width="320" height="460" as="geometry" />
        </mxCell>
        <mxCell id="zd9Hb2fchRFQWG5ULuG4-68" value="threat model report" style="shape=document;whiteSpace=wrap;html=1;boundedLbl=1;" parent="nt4A36XUKgA60ntTlZA5-1" vertex="1">
          <mxGeometry x="-3290" y="3790" width="120" height="80" as="geometry" />
        </mxCell>
        <mxCell id="zd9Hb2fchRFQWG5ULuG4-69" style="edgeStyle=orthogonalEdgeStyle;rounded=0;orthogonalLoop=1;jettySize=auto;html=1;entryX=0;entryY=0.5;entryDx=0;entryDy=0;entryPerimeter=0;" parent="nt4A36XUKgA60ntTlZA5-1" source="zd9Hb2fchRFQWG5ULuG4-70" target="zd9Hb2fchRFQWG5ULuG4-79" edge="1">
          <mxGeometry relative="1" as="geometry" />
        </mxCell>
        <mxCell id="zd9Hb2fchRFQWG5ULuG4-70" value="threat model analysis" style="shape=process;whiteSpace=wrap;html=1;backgroundOutline=1;" parent="nt4A36XUKgA60ntTlZA5-1" vertex="1">
          <mxGeometry x="-3620" y="3640" width="120" height="60" as="geometry" />
        </mxCell>
        <mxCell id="zd9Hb2fchRFQWG5ULuG4-71" style="edgeStyle=orthogonalEdgeStyle;rounded=0;orthogonalLoop=1;jettySize=auto;html=1;entryX=0.75;entryY=0;entryDx=0;entryDy=0;fillColor=#6a00ff;strokeColor=#3700CC;" parent="nt4A36XUKgA60ntTlZA5-1" source="zd9Hb2fchRFQWG5ULuG4-95" target="zd9Hb2fchRFQWG5ULuG4-86" edge="1">
          <mxGeometry relative="1" as="geometry" />
        </mxCell>
        <mxCell id="zd9Hb2fchRFQWG5ULuG4-72" style="edgeStyle=orthogonalEdgeStyle;rounded=0;orthogonalLoop=1;jettySize=auto;html=1;entryX=0.25;entryY=0;entryDx=0;entryDy=0;fillColor=#6a00ff;strokeColor=#3700CC;" parent="nt4A36XUKgA60ntTlZA5-1" source="zd9Hb2fchRFQWG5ULuG4-92" target="zd9Hb2fchRFQWG5ULuG4-83" edge="1">
          <mxGeometry relative="1" as="geometry">
            <mxPoint x="-3285" y="3210" as="sourcePoint" />
            <Array as="points">
              <mxPoint x="-3285" y="3590" />
              <mxPoint x="-3260" y="3590" />
            </Array>
          </mxGeometry>
        </mxCell>
        <mxCell id="zd9Hb2fchRFQWG5ULuG4-73" style="edgeStyle=orthogonalEdgeStyle;rounded=0;orthogonalLoop=1;jettySize=auto;html=1;entryX=0.5;entryY=0;entryDx=0;entryDy=0;fillColor=#6a00ff;strokeColor=#3700CC;" parent="nt4A36XUKgA60ntTlZA5-1" source="zd9Hb2fchRFQWG5ULuG4-94" target="zd9Hb2fchRFQWG5ULuG4-70" edge="1">
          <mxGeometry relative="1" as="geometry" />
        </mxCell>
        <mxCell id="zd9Hb2fchRFQWG5ULuG4-74" style="edgeStyle=orthogonalEdgeStyle;rounded=0;orthogonalLoop=1;jettySize=auto;html=1;entryX=0.25;entryY=0;entryDx=0;entryDy=0;fillColor=#6a00ff;strokeColor=#3700CC;" parent="nt4A36XUKgA60ntTlZA5-1" source="zd9Hb2fchRFQWG5ULuG4-96" target="zd9Hb2fchRFQWG5ULuG4-86" edge="1">
          <mxGeometry relative="1" as="geometry" />
        </mxCell>
        <mxCell id="zd9Hb2fchRFQWG5ULuG4-75" style="edgeStyle=orthogonalEdgeStyle;rounded=0;orthogonalLoop=1;jettySize=auto;html=1;entryX=0.75;entryY=0;entryDx=0;entryDy=0;fillColor=#6a00ff;strokeColor=#3700CC;" parent="nt4A36XUKgA60ntTlZA5-1" source="zd9Hb2fchRFQWG5ULuG4-93" target="zd9Hb2fchRFQWG5ULuG4-83" edge="1">
          <mxGeometry relative="1" as="geometry">
            <mxPoint x="-3160" y="3400" as="sourcePoint" />
            <Array as="points">
              <mxPoint x="-3175" y="3590" />
              <mxPoint x="-3200" y="3590" />
            </Array>
          </mxGeometry>
        </mxCell>
        <mxCell id="zd9Hb2fchRFQWG5ULuG4-76" style="edgeStyle=orthogonalEdgeStyle;rounded=0;orthogonalLoop=1;jettySize=auto;html=1;entryX=0;entryY=0.75;entryDx=0;entryDy=0;fillColor=#fa6800;strokeColor=#FF8000;" parent="nt4A36XUKgA60ntTlZA5-1" source="zd9Hb2fchRFQWG5ULuG4-77" target="zd9Hb2fchRFQWG5ULuG4-70" edge="1">
          <mxGeometry relative="1" as="geometry" />
        </mxCell>
        <mxCell id="zd9Hb2fchRFQWG5ULuG4-77" value="threat model" style="shape=note;whiteSpace=wrap;html=1;backgroundOutline=1;darkOpacity=0.05;" parent="nt4A36XUKgA60ntTlZA5-1" vertex="1">
          <mxGeometry x="-3870" y="3635" width="80" height="100" as="geometry" />
        </mxCell>
        <mxCell id="zd9Hb2fchRFQWG5ULuG4-78" style="edgeStyle=orthogonalEdgeStyle;rounded=0;orthogonalLoop=1;jettySize=auto;html=1;entryX=0;entryY=0.5;entryDx=0;entryDy=0;fillColor=#fa6800;strokeColor=#FF8000;" parent="nt4A36XUKgA60ntTlZA5-1" source="zd9Hb2fchRFQWG5ULuG4-79" target="zd9Hb2fchRFQWG5ULuG4-83" edge="1">
          <mxGeometry relative="1" as="geometry" />
        </mxCell>
        <mxCell id="zd9Hb2fchRFQWG5ULuG4-79" value="threat candidates" style="shape=note;whiteSpace=wrap;html=1;backgroundOutline=1;darkOpacity=0.05;" parent="nt4A36XUKgA60ntTlZA5-1" vertex="1">
          <mxGeometry x="-3450" y="3620" width="80" height="100" as="geometry" />
        </mxCell>
        <mxCell id="zd9Hb2fchRFQWG5ULuG4-80" style="edgeStyle=orthogonalEdgeStyle;rounded=0;orthogonalLoop=1;jettySize=auto;html=1;entryX=0;entryY=0.5;entryDx=0;entryDy=0;entryPerimeter=0;" parent="nt4A36XUKgA60ntTlZA5-1" source="zd9Hb2fchRFQWG5ULuG4-83" target="zd9Hb2fchRFQWG5ULuG4-84" edge="1">
          <mxGeometry relative="1" as="geometry" />
        </mxCell>
        <mxCell id="zd9Hb2fchRFQWG5ULuG4-81" style="edgeStyle=orthogonalEdgeStyle;rounded=0;orthogonalLoop=1;jettySize=auto;html=1;entryX=0.5;entryY=0;entryDx=0;entryDy=0;exitX=0.5;exitY=1;exitDx=0;exitDy=0;" parent="nt4A36XUKgA60ntTlZA5-1" source="zd9Hb2fchRFQWG5ULuG4-83" target="zd9Hb2fchRFQWG5ULuG4-68" edge="1">
          <mxGeometry relative="1" as="geometry" />
        </mxCell>
        <mxCell id="zd9Hb2fchRFQWG5ULuG4-82" style="edgeStyle=orthogonalEdgeStyle;rounded=0;orthogonalLoop=1;jettySize=auto;html=1;exitX=0.25;exitY=1;exitDx=0;exitDy=0;entryX=0.5;entryY=1;entryDx=0;entryDy=0;entryPerimeter=0;strokeWidth=1;dashed=1;" parent="nt4A36XUKgA60ntTlZA5-1" source="zd9Hb2fchRFQWG5ULuG4-83" target="zd9Hb2fchRFQWG5ULuG4-77" edge="1">
          <mxGeometry relative="1" as="geometry">
            <mxPoint x="-3740" y="3930" as="targetPoint" />
            <Array as="points">
              <mxPoint x="-3260" y="3760" />
              <mxPoint x="-3830" y="3760" />
            </Array>
          </mxGeometry>
        </mxCell>
        <mxCell id="zd9Hb2fchRFQWG5ULuG4-83" value="triage" style="shape=process;whiteSpace=wrap;html=1;backgroundOutline=1;" parent="nt4A36XUKgA60ntTlZA5-1" vertex="1">
          <mxGeometry x="-3290" y="3640" width="120" height="60" as="geometry" />
        </mxCell>
        <mxCell id="zd9Hb2fchRFQWG5ULuG4-84" value="triaged&lt;br&gt;threat candidates" style="shape=note;whiteSpace=wrap;html=1;backgroundOutline=1;darkOpacity=0.05;" parent="nt4A36XUKgA60ntTlZA5-1" vertex="1">
          <mxGeometry x="-3130" y="3620" width="80" height="100" as="geometry" />
        </mxCell>
        <mxCell id="zd9Hb2fchRFQWG5ULuG4-85" style="edgeStyle=orthogonalEdgeStyle;rounded=0;orthogonalLoop=1;jettySize=auto;html=1;entryX=0;entryY=0.5;entryDx=0;entryDy=0;entryPerimeter=0;" parent="nt4A36XUKgA60ntTlZA5-1" source="zd9Hb2fchRFQWG5ULuG4-86" target="zd9Hb2fchRFQWG5ULuG4-77" edge="1">
          <mxGeometry relative="1" as="geometry" />
        </mxCell>
        <mxCell id="zd9Hb2fchRFQWG5ULuG4-86" value="threat model creation" style="shape=process;whiteSpace=wrap;html=1;backgroundOutline=1;" parent="nt4A36XUKgA60ntTlZA5-1" vertex="1">
          <mxGeometry x="-4040" y="3655" width="120" height="60" as="geometry" />
        </mxCell>
        <mxCell id="zd9Hb2fchRFQWG5ULuG4-87" value="model creation" style="text;html=1;strokeColor=none;fillColor=none;align=center;verticalAlign=middle;whiteSpace=wrap;rounded=0;" parent="nt4A36XUKgA60ntTlZA5-1" vertex="1">
          <mxGeometry x="-4190" y="3895" width="420" height="20" as="geometry" />
        </mxCell>
        <mxCell id="zd9Hb2fchRFQWG5ULuG4-88" value="analysis" style="text;html=1;strokeColor=none;fillColor=none;align=center;verticalAlign=middle;whiteSpace=wrap;rounded=0;" parent="nt4A36XUKgA60ntTlZA5-1" vertex="1">
          <mxGeometry x="-3770" y="3880" width="420" height="20" as="geometry" />
        </mxCell>
        <mxCell id="zd9Hb2fchRFQWG5ULuG4-89" value="triaging" style="text;html=1;strokeColor=none;fillColor=none;align=center;verticalAlign=middle;whiteSpace=wrap;rounded=0;" parent="nt4A36XUKgA60ntTlZA5-1" vertex="1">
          <mxGeometry x="-3350" y="3880" width="320" height="20" as="geometry" />
        </mxCell>
        <mxCell id="zd9Hb2fchRFQWG5ULuG4-90" style="edgeStyle=orthogonalEdgeStyle;rounded=0;orthogonalLoop=1;jettySize=auto;html=1;fillColor=#fa6800;strokeColor=#FF8000;entryX=0;entryY=0.5;entryDx=0;entryDy=0;" parent="nt4A36XUKgA60ntTlZA5-1" source="zd9Hb2fchRFQWG5ULuG4-91" target="zd9Hb2fchRFQWG5ULuG4-86" edge="1">
          <mxGeometry relative="1" as="geometry">
            <mxPoint x="-4040" y="3685" as="targetPoint" />
          </mxGeometry>
        </mxCell>
        <mxCell id="zd9Hb2fchRFQWG5ULuG4-91" value="system&lt;br&gt;design" style="shape=note;whiteSpace=wrap;html=1;backgroundOutline=1;darkOpacity=0.05;" parent="nt4A36XUKgA60ntTlZA5-1" vertex="1">
          <mxGeometry x="-4170" y="3635" width="80" height="100" as="geometry" />
        </mxCell>
        <mxCell id="zd9Hb2fchRFQWG5ULuG4-92" value="&lt;span style=&quot;background-color: rgb(212 , 225 , 245)&quot;&gt;threat modeling&lt;br&gt;&amp;nbsp; &amp;nbsp; &amp;nbsp; &amp;nbsp; &amp;nbsp;SME&amp;nbsp; &amp;nbsp; &amp;nbsp; &amp;nbsp;&amp;nbsp;&lt;/span&gt;" style="shape=umlActor;verticalLabelPosition=bottom;labelBackgroundColor=#ffffff;verticalAlign=top;html=1;outlineConnect=0;fillColor=#D4E1F5;" parent="nt4A36XUKgA60ntTlZA5-1" vertex="1">
          <mxGeometry x="-3300" y="3470" width="30" height="60" as="geometry" />
        </mxCell>
        <mxCell id="zd9Hb2fchRFQWG5ULuG4-93" value="&lt;span style=&quot;background-color: rgb(212 , 225 , 245)&quot;&gt;development&lt;br&gt;&amp;nbsp; &amp;nbsp; &amp;nbsp; SME&amp;nbsp; &amp;nbsp; &amp;nbsp; &amp;nbsp;&lt;/span&gt;" style="shape=umlActor;verticalLabelPosition=bottom;labelBackgroundColor=#ffffff;verticalAlign=top;html=1;outlineConnect=0;fillColor=#D4E1F5;" parent="nt4A36XUKgA60ntTlZA5-1" vertex="1">
          <mxGeometry x="-3190" y="3470" width="30" height="60" as="geometry" />
        </mxCell>
        <mxCell id="zd9Hb2fchRFQWG5ULuG4-94" value="&lt;span style=&quot;background-color: rgb(213 , 232 , 212)&quot;&gt;threat modeling&lt;br&gt;&amp;nbsp; &amp;nbsp; &amp;nbsp; &amp;nbsp; &amp;nbsp;SME&amp;nbsp; &amp;nbsp; &amp;nbsp; &amp;nbsp;&amp;nbsp;&lt;/span&gt;" style="shape=umlActor;verticalLabelPosition=bottom;labelBackgroundColor=#ffffff;verticalAlign=top;html=1;outlineConnect=0;fillColor=#D5E8D4;" parent="nt4A36XUKgA60ntTlZA5-1" vertex="1">
          <mxGeometry x="-3575" y="3470" width="30" height="60" as="geometry" />
        </mxCell>
        <mxCell id="zd9Hb2fchRFQWG5ULuG4-95" value="&lt;span style=&quot;background-color: rgb(249 , 247 , 237)&quot;&gt;threat modeling&lt;br&gt;&amp;nbsp; &amp;nbsp; &amp;nbsp; &amp;nbsp; &amp;nbsp;SME&amp;nbsp; &amp;nbsp; &amp;nbsp; &amp;nbsp;&amp;nbsp;&lt;/span&gt;" style="shape=umlActor;verticalLabelPosition=bottom;labelBackgroundColor=#ffffff;verticalAlign=top;html=1;outlineConnect=0;fillColor=#F9F7ED;" parent="nt4A36XUKgA60ntTlZA5-1" vertex="1">
          <mxGeometry x="-3940" y="3485" width="30" height="60" as="geometry" />
        </mxCell>
        <mxCell id="zd9Hb2fchRFQWG5ULuG4-96" value="&lt;span style=&quot;background-color: rgb(249 , 247 , 237)&quot;&gt;development&lt;br&gt;&amp;nbsp; &amp;nbsp; &amp;nbsp; SME&amp;nbsp; &amp;nbsp; &amp;nbsp; &amp;nbsp;&lt;/span&gt;" style="shape=umlActor;verticalLabelPosition=bottom;labelBackgroundColor=#ffffff;verticalAlign=top;html=1;outlineConnect=0;fillColor=#F9F7ED;" parent="nt4A36XUKgA60ntTlZA5-1" vertex="1">
          <mxGeometry x="-4050" y="3485" width="30" height="60" as="geometry" />
        </mxCell>
        <mxCell id="zd9Hb2fchRFQWG5ULuG4-97" style="edgeStyle=orthogonalEdgeStyle;rounded=0;orthogonalLoop=1;jettySize=auto;html=1;entryX=0;entryY=0.25;entryDx=0;entryDy=0;strokeColor=#FF8000;" parent="nt4A36XUKgA60ntTlZA5-1" source="zd9Hb2fchRFQWG5ULuG4-98" target="zd9Hb2fchRFQWG5ULuG4-70" edge="1">
          <mxGeometry relative="1" as="geometry">
            <Array as="points">
              <mxPoint x="-3640" y="3590" />
              <mxPoint x="-3640" y="3655" />
            </Array>
          </mxGeometry>
        </mxCell>
        <mxCell id="zd9Hb2fchRFQWG5ULuG4-98" value="updated development requirements" style="shape=note;whiteSpace=wrap;html=1;backgroundOutline=1;darkOpacity=0.05;" parent="nt4A36XUKgA60ntTlZA5-1" vertex="1">
          <mxGeometry x="-3740" y="3540" width="80" height="100" as="geometry" />
        </mxCell>
        <mxCell id="zd9Hb2fchRFQWG5ULuG4-105" value="" style="rounded=0;whiteSpace=wrap;html=1;fillColor=#f9f7ed;strokeColor=none;" parent="nt4A36XUKgA60ntTlZA5-1" vertex="1">
          <mxGeometry x="-2920" y="3440" width="420" height="460" as="geometry" />
        </mxCell>
        <mxCell id="zd9Hb2fchRFQWG5ULuG4-111" style="edgeStyle=orthogonalEdgeStyle;rounded=0;orthogonalLoop=1;jettySize=auto;html=1;entryX=0.75;entryY=0;entryDx=0;entryDy=0;fillColor=#6a00ff;strokeColor=#3700CC;" parent="nt4A36XUKgA60ntTlZA5-1" source="zd9Hb2fchRFQWG5ULuG4-135" target="zd9Hb2fchRFQWG5ULuG4-126" edge="1">
          <mxGeometry relative="1" as="geometry" />
        </mxCell>
        <mxCell id="zd9Hb2fchRFQWG5ULuG4-114" style="edgeStyle=orthogonalEdgeStyle;rounded=0;orthogonalLoop=1;jettySize=auto;html=1;entryX=0.25;entryY=0;entryDx=0;entryDy=0;fillColor=#6a00ff;strokeColor=#3700CC;" parent="nt4A36XUKgA60ntTlZA5-1" source="zd9Hb2fchRFQWG5ULuG4-136" target="zd9Hb2fchRFQWG5ULuG4-126" edge="1">
          <mxGeometry relative="1" as="geometry" />
        </mxCell>
        <mxCell id="zd9Hb2fchRFQWG5ULuG4-117" value="threat model" style="shape=note;whiteSpace=wrap;html=1;backgroundOutline=1;darkOpacity=0.05;" parent="nt4A36XUKgA60ntTlZA5-1" vertex="1">
          <mxGeometry x="-2600" y="3620" width="80" height="100" as="geometry" />
        </mxCell>
        <mxCell id="zd9Hb2fchRFQWG5ULuG4-125" style="edgeStyle=orthogonalEdgeStyle;rounded=0;orthogonalLoop=1;jettySize=auto;html=1;entryX=0;entryY=0.5;entryDx=0;entryDy=0;entryPerimeter=0;" parent="nt4A36XUKgA60ntTlZA5-1" source="zd9Hb2fchRFQWG5ULuG4-126" target="zd9Hb2fchRFQWG5ULuG4-117" edge="1">
          <mxGeometry relative="1" as="geometry" />
        </mxCell>
        <mxCell id="zd9Hb2fchRFQWG5ULuG4-126" value="threat model creation" style="shape=process;whiteSpace=wrap;html=1;backgroundOutline=1;" parent="nt4A36XUKgA60ntTlZA5-1" vertex="1">
          <mxGeometry x="-2770" y="3640" width="120" height="60" as="geometry" />
        </mxCell>
        <mxCell id="zd9Hb2fchRFQWG5ULuG4-127" value="model creation" style="text;html=1;strokeColor=none;fillColor=none;align=center;verticalAlign=middle;whiteSpace=wrap;rounded=0;" parent="nt4A36XUKgA60ntTlZA5-1" vertex="1">
          <mxGeometry x="-2920" y="3880" width="420" height="20" as="geometry" />
        </mxCell>
        <mxCell id="zd9Hb2fchRFQWG5ULuG4-130" style="edgeStyle=orthogonalEdgeStyle;rounded=0;orthogonalLoop=1;jettySize=auto;html=1;fillColor=#fa6800;strokeColor=#FF8000;entryX=0;entryY=0.5;entryDx=0;entryDy=0;" parent="nt4A36XUKgA60ntTlZA5-1" source="zd9Hb2fchRFQWG5ULuG4-131" target="zd9Hb2fchRFQWG5ULuG4-126" edge="1">
          <mxGeometry relative="1" as="geometry">
            <mxPoint x="-2770" y="3670" as="targetPoint" />
          </mxGeometry>
        </mxCell>
        <mxCell id="zd9Hb2fchRFQWG5ULuG4-131" value="system&lt;br&gt;design" style="shape=note;whiteSpace=wrap;html=1;backgroundOutline=1;darkOpacity=0.05;" parent="nt4A36XUKgA60ntTlZA5-1" vertex="1">
          <mxGeometry x="-2900" y="3620" width="80" height="100" as="geometry" />
        </mxCell>
        <mxCell id="zd9Hb2fchRFQWG5ULuG4-135" value="&lt;span style=&quot;background-color: rgb(249 , 247 , 237)&quot;&gt;threat modeling&lt;br&gt;&amp;nbsp; &amp;nbsp; &amp;nbsp; &amp;nbsp; &amp;nbsp;SME&amp;nbsp; &amp;nbsp; &amp;nbsp; &amp;nbsp;&amp;nbsp;&lt;/span&gt;" style="shape=umlActor;verticalLabelPosition=bottom;labelBackgroundColor=#ffffff;verticalAlign=top;html=1;outlineConnect=0;fillColor=#F9F7ED;" parent="nt4A36XUKgA60ntTlZA5-1" vertex="1">
          <mxGeometry x="-2670" y="3470" width="30" height="60" as="geometry" />
        </mxCell>
        <mxCell id="zd9Hb2fchRFQWG5ULuG4-136" value="&lt;span style=&quot;background-color: rgb(249 , 247 , 237)&quot;&gt;development&lt;br&gt;&amp;nbsp; &amp;nbsp; &amp;nbsp; SME&amp;nbsp; &amp;nbsp; &amp;nbsp; &amp;nbsp;&lt;/span&gt;" style="shape=umlActor;verticalLabelPosition=bottom;labelBackgroundColor=#ffffff;verticalAlign=top;html=1;outlineConnect=0;fillColor=#F9F7ED;" parent="nt4A36XUKgA60ntTlZA5-1" vertex="1">
          <mxGeometry x="-2780" y="3470" width="30" height="60" as="geometry" />
        </mxCell>
        <mxCell id="zd9Hb2fchRFQWG5ULuG4-160" value="" style="rounded=0;whiteSpace=wrap;html=1;strokeColor=none;fillColor=#D5E8D4;" parent="nt4A36XUKgA60ntTlZA5-1" vertex="1">
          <mxGeometry x="-2240" y="3440" width="420" height="460" as="geometry" />
        </mxCell>
        <mxCell id="zd9Hb2fchRFQWG5ULuG4-161" style="edgeStyle=orthogonalEdgeStyle;rounded=0;orthogonalLoop=1;jettySize=auto;html=1;entryX=0;entryY=0.5;entryDx=0;entryDy=0;entryPerimeter=0;" parent="nt4A36XUKgA60ntTlZA5-1" source="zd9Hb2fchRFQWG5ULuG4-162" target="zd9Hb2fchRFQWG5ULuG4-166" edge="1">
          <mxGeometry relative="1" as="geometry" />
        </mxCell>
        <mxCell id="zd9Hb2fchRFQWG5ULuG4-162" value="threat model analysis" style="shape=process;whiteSpace=wrap;html=1;backgroundOutline=1;" parent="nt4A36XUKgA60ntTlZA5-1" vertex="1">
          <mxGeometry x="-2090" y="3640" width="120" height="60" as="geometry" />
        </mxCell>
        <mxCell id="zd9Hb2fchRFQWG5ULuG4-163" style="edgeStyle=orthogonalEdgeStyle;rounded=0;orthogonalLoop=1;jettySize=auto;html=1;entryX=0.5;entryY=0;entryDx=0;entryDy=0;fillColor=#6a00ff;strokeColor=#3700CC;" parent="nt4A36XUKgA60ntTlZA5-1" source="zd9Hb2fchRFQWG5ULuG4-168" target="zd9Hb2fchRFQWG5ULuG4-162" edge="1">
          <mxGeometry relative="1" as="geometry" />
        </mxCell>
        <mxCell id="zd9Hb2fchRFQWG5ULuG4-164" style="edgeStyle=orthogonalEdgeStyle;rounded=0;orthogonalLoop=1;jettySize=auto;html=1;entryX=0;entryY=0.75;entryDx=0;entryDy=0;fillColor=#fa6800;strokeColor=#FF8000;" parent="nt4A36XUKgA60ntTlZA5-1" source="zd9Hb2fchRFQWG5ULuG4-165" target="zd9Hb2fchRFQWG5ULuG4-162" edge="1">
          <mxGeometry relative="1" as="geometry" />
        </mxCell>
        <mxCell id="zd9Hb2fchRFQWG5ULuG4-165" value="threat model" style="shape=note;whiteSpace=wrap;html=1;backgroundOutline=1;darkOpacity=0.05;" parent="nt4A36XUKgA60ntTlZA5-1" vertex="1">
          <mxGeometry x="-2340" y="3635" width="80" height="100" as="geometry" />
        </mxCell>
        <mxCell id="zd9Hb2fchRFQWG5ULuG4-166" value="threat candidates" style="shape=note;whiteSpace=wrap;html=1;backgroundOutline=1;darkOpacity=0.05;" parent="nt4A36XUKgA60ntTlZA5-1" vertex="1">
          <mxGeometry x="-1920" y="3620" width="80" height="100" as="geometry" />
        </mxCell>
        <mxCell id="zd9Hb2fchRFQWG5ULuG4-167" value="analysis" style="text;html=1;strokeColor=none;fillColor=none;align=center;verticalAlign=middle;whiteSpace=wrap;rounded=0;" parent="nt4A36XUKgA60ntTlZA5-1" vertex="1">
          <mxGeometry x="-2240" y="3880" width="420" height="20" as="geometry" />
        </mxCell>
        <mxCell id="zd9Hb2fchRFQWG5ULuG4-168" value="&lt;span style=&quot;background-color: rgb(213 , 232 , 212)&quot;&gt;threat modeling&lt;br&gt;&amp;nbsp; &amp;nbsp; &amp;nbsp; &amp;nbsp; &amp;nbsp;SME&amp;nbsp; &amp;nbsp; &amp;nbsp; &amp;nbsp;&amp;nbsp;&lt;/span&gt;" style="shape=umlActor;verticalLabelPosition=bottom;labelBackgroundColor=#ffffff;verticalAlign=top;html=1;outlineConnect=0;fillColor=#D5E8D4;" parent="nt4A36XUKgA60ntTlZA5-1" vertex="1">
          <mxGeometry x="-2045" y="3470" width="30" height="60" as="geometry" />
        </mxCell>
        <mxCell id="zd9Hb2fchRFQWG5ULuG4-169" style="edgeStyle=orthogonalEdgeStyle;rounded=0;orthogonalLoop=1;jettySize=auto;html=1;entryX=0;entryY=0.25;entryDx=0;entryDy=0;strokeColor=#FF8000;" parent="nt4A36XUKgA60ntTlZA5-1" source="zd9Hb2fchRFQWG5ULuG4-170" target="zd9Hb2fchRFQWG5ULuG4-162" edge="1">
          <mxGeometry relative="1" as="geometry">
            <Array as="points">
              <mxPoint x="-2110" y="3590" />
              <mxPoint x="-2110" y="3655" />
            </Array>
          </mxGeometry>
        </mxCell>
        <mxCell id="zd9Hb2fchRFQWG5ULuG4-170" value="updated development requirements" style="shape=note;whiteSpace=wrap;html=1;backgroundOutline=1;darkOpacity=0.05;" parent="nt4A36XUKgA60ntTlZA5-1" vertex="1">
          <mxGeometry x="-2210" y="3540" width="80" height="100" as="geometry" />
        </mxCell>
        <mxCell id="mFnkBL1FFMKKfn035he2-1" value="" style="rounded=0;whiteSpace=wrap;html=1;strokeColor=none;fillColor=#D5E8D4;" parent="nt4A36XUKgA60ntTlZA5-1" vertex="1">
          <mxGeometry x="-3720" y="4040" width="290" height="460" as="geometry" />
        </mxCell>
        <mxCell id="mFnkBL1FFMKKfn035he2-2" value="" style="rounded=0;whiteSpace=wrap;html=1;fillColor=#f9f7ed;strokeColor=none;" parent="nt4A36XUKgA60ntTlZA5-1" vertex="1">
          <mxGeometry x="-4010" y="4040" width="290" height="460" as="geometry" />
        </mxCell>
        <mxCell id="mFnkBL1FFMKKfn035he2-3" value="" style="rounded=0;whiteSpace=wrap;html=1;strokeColor=none;fillColor=#D4E1F5;" parent="nt4A36XUKgA60ntTlZA5-1" vertex="1">
          <mxGeometry x="-3430" y="4040" width="367" height="460" as="geometry" />
        </mxCell>
        <mxCell id="mFnkBL1FFMKKfn035he2-4" value="ranked / risked&lt;br&gt;threat report" style="shape=document;whiteSpace=wrap;html=1;boundedLbl=1;" parent="nt4A36XUKgA60ntTlZA5-1" vertex="1">
          <mxGeometry x="-3700" y="4380" width="120" height="80" as="geometry" />
        </mxCell>
        <mxCell id="mFnkBL1FFMKKfn035he2-5" style="edgeStyle=orthogonalEdgeStyle;rounded=0;orthogonalLoop=1;jettySize=auto;html=1;entryX=0;entryY=0.5;entryDx=0;entryDy=0;entryPerimeter=0;" parent="nt4A36XUKgA60ntTlZA5-1" source="mFnkBL1FFMKKfn035he2-7" target="mFnkBL1FFMKKfn035he2-11" edge="1">
          <mxGeometry relative="1" as="geometry" />
        </mxCell>
        <mxCell id="mFnkBL1FFMKKfn035he2-6" style="edgeStyle=orthogonalEdgeStyle;rounded=0;orthogonalLoop=1;jettySize=auto;html=1;exitX=0.5;exitY=1;exitDx=0;exitDy=0;" parent="nt4A36XUKgA60ntTlZA5-1" source="mFnkBL1FFMKKfn035he2-13" target="mFnkBL1FFMKKfn035he2-4" edge="1">
          <mxGeometry relative="1" as="geometry" />
        </mxCell>
        <mxCell id="mFnkBL1FFMKKfn035he2-7" value="rank" style="shape=process;whiteSpace=wrap;html=1;backgroundOutline=1;" parent="nt4A36XUKgA60ntTlZA5-1" vertex="1">
          <mxGeometry x="-3980" y="4240" width="120" height="60" as="geometry" />
        </mxCell>
        <mxCell id="mFnkBL1FFMKKfn035he2-8" style="edgeStyle=orthogonalEdgeStyle;rounded=0;orthogonalLoop=1;jettySize=auto;html=1;entryX=0.5;entryY=0;entryDx=0;entryDy=0;fillColor=#6a00ff;strokeColor=#3700CC;" parent="nt4A36XUKgA60ntTlZA5-1" source="mFnkBL1FFMKKfn035he2-9" target="mFnkBL1FFMKKfn035he2-13" edge="1">
          <mxGeometry relative="1" as="geometry" />
        </mxCell>
        <mxCell id="mFnkBL1FFMKKfn035he2-9" value="&lt;span style=&quot;background-color: rgb(213 , 232 , 212)&quot;&gt;risk SME&lt;/span&gt;" style="shape=umlActor;verticalLabelPosition=bottom;labelBackgroundColor=#ffffff;verticalAlign=top;html=1;outlineConnect=0;fillColor=#D5E8D4;" parent="nt4A36XUKgA60ntTlZA5-1" vertex="1">
          <mxGeometry x="-3655" y="4070" width="30" height="60" as="geometry" />
        </mxCell>
        <mxCell id="mFnkBL1FFMKKfn035he2-10" style="edgeStyle=orthogonalEdgeStyle;rounded=0;orthogonalLoop=1;jettySize=auto;html=1;entryX=0;entryY=0.5;entryDx=0;entryDy=0;fillColor=#fa6800;strokeColor=#FF8000;" parent="nt4A36XUKgA60ntTlZA5-1" source="mFnkBL1FFMKKfn035he2-11" target="mFnkBL1FFMKKfn035he2-13" edge="1">
          <mxGeometry relative="1" as="geometry" />
        </mxCell>
        <mxCell id="mFnkBL1FFMKKfn035he2-11" value="ranked&lt;br&gt;threat candidates" style="shape=note;whiteSpace=wrap;html=1;backgroundOutline=1;darkOpacity=0.05;" parent="nt4A36XUKgA60ntTlZA5-1" vertex="1">
          <mxGeometry x="-3820" y="4220" width="80" height="100" as="geometry" />
        </mxCell>
        <mxCell id="mFnkBL1FFMKKfn035he2-12" value="" style="edgeStyle=orthogonalEdgeStyle;rounded=0;orthogonalLoop=1;jettySize=auto;html=1;" parent="nt4A36XUKgA60ntTlZA5-1" source="mFnkBL1FFMKKfn035he2-13" target="mFnkBL1FFMKKfn035he2-15" edge="1">
          <mxGeometry relative="1" as="geometry" />
        </mxCell>
        <mxCell id="mFnkBL1FFMKKfn035he2-13" value="risk" style="shape=process;whiteSpace=wrap;html=1;backgroundOutline=1;" parent="nt4A36XUKgA60ntTlZA5-1" vertex="1">
          <mxGeometry x="-3700" y="4240" width="120" height="60" as="geometry" />
        </mxCell>
        <mxCell id="mFnkBL1FFMKKfn035he2-14" style="edgeStyle=orthogonalEdgeStyle;rounded=0;orthogonalLoop=1;jettySize=auto;html=1;entryX=0;entryY=0.5;entryDx=0;entryDy=0;fillColor=#fa6800;strokeColor=#FF8000;exitX=1;exitY=0.503;exitDx=0;exitDy=0;exitPerimeter=0;" parent="nt4A36XUKgA60ntTlZA5-1" source="mFnkBL1FFMKKfn035he2-15" target="mFnkBL1FFMKKfn035he2-18" edge="1">
          <mxGeometry relative="1" as="geometry">
            <Array as="points">
              <mxPoint x="-3410" y="4270" />
              <mxPoint x="-3410" y="4270" />
            </Array>
          </mxGeometry>
        </mxCell>
        <mxCell id="mFnkBL1FFMKKfn035he2-15" value="ranked/risked&lt;br&gt;threat candidates" style="shape=note;whiteSpace=wrap;html=1;backgroundOutline=1;darkOpacity=0.05;" parent="nt4A36XUKgA60ntTlZA5-1" vertex="1">
          <mxGeometry x="-3540" y="4220" width="80" height="100" as="geometry" />
        </mxCell>
        <mxCell id="mFnkBL1FFMKKfn035he2-16" style="edgeStyle=orthogonalEdgeStyle;rounded=0;orthogonalLoop=1;jettySize=auto;html=1;entryX=0;entryY=0.5;entryDx=0;entryDy=0;entryPerimeter=0;" parent="nt4A36XUKgA60ntTlZA5-1" source="mFnkBL1FFMKKfn035he2-18" target="mFnkBL1FFMKKfn035he2-20" edge="1">
          <mxGeometry relative="1" as="geometry">
            <mxPoint x="-3163" y="4270" as="targetPoint" />
          </mxGeometry>
        </mxCell>
        <mxCell id="mFnkBL1FFMKKfn035he2-17" style="edgeStyle=orthogonalEdgeStyle;rounded=0;orthogonalLoop=1;jettySize=auto;html=1;entryX=0.5;entryY=0;entryDx=0;entryDy=0;" parent="nt4A36XUKgA60ntTlZA5-1" source="mFnkBL1FFMKKfn035he2-18" target="mFnkBL1FFMKKfn035he2-21" edge="1">
          <mxGeometry relative="1" as="geometry" />
        </mxCell>
        <mxCell id="mFnkBL1FFMKKfn035he2-18" value="slice" style="shape=process;whiteSpace=wrap;html=1;backgroundOutline=1;" parent="nt4A36XUKgA60ntTlZA5-1" vertex="1">
          <mxGeometry x="-3323" y="4240" width="120" height="60" as="geometry" />
        </mxCell>
        <mxCell id="mFnkBL1FFMKKfn035he2-19" style="edgeStyle=orthogonalEdgeStyle;rounded=0;orthogonalLoop=1;jettySize=auto;html=1;entryX=0;entryY=0.5;entryDx=0;entryDy=0;exitX=0.998;exitY=0.498;exitDx=0;exitDy=0;exitPerimeter=0;" parent="nt4A36XUKgA60ntTlZA5-1" source="mFnkBL1FFMKKfn035he2-20" target="mFnkBL1FFMKKfn035he2-24" edge="1">
          <mxGeometry relative="1" as="geometry">
            <mxPoint x="-3083" y="4270" as="sourcePoint" />
            <mxPoint x="-3053" y="4270" as="targetPoint" />
          </mxGeometry>
        </mxCell>
        <mxCell id="mFnkBL1FFMKKfn035he2-20" value="uncontrolled threats" style="shape=note;whiteSpace=wrap;html=1;backgroundOutline=1;darkOpacity=0.05;" parent="nt4A36XUKgA60ntTlZA5-1" vertex="1">
          <mxGeometry x="-3163" y="4220" width="80" height="100" as="geometry" />
        </mxCell>
        <mxCell id="mFnkBL1FFMKKfn035he2-21" value="threat report" style="shape=document;whiteSpace=wrap;html=1;boundedLbl=1;" parent="nt4A36XUKgA60ntTlZA5-1" vertex="1">
          <mxGeometry x="-3323" y="4380" width="120" height="80" as="geometry" />
        </mxCell>
        <mxCell id="mFnkBL1FFMKKfn035he2-22" style="edgeStyle=orthogonalEdgeStyle;rounded=0;orthogonalLoop=1;jettySize=auto;html=1;entryX=0.5;entryY=0;entryDx=0;entryDy=0;fillColor=#6a00ff;strokeColor=#3700CC;" parent="nt4A36XUKgA60ntTlZA5-1" source="mFnkBL1FFMKKfn035he2-23" target="mFnkBL1FFMKKfn035he2-7" edge="1">
          <mxGeometry relative="1" as="geometry" />
        </mxCell>
        <mxCell id="mFnkBL1FFMKKfn035he2-23" value="&lt;span style=&quot;background-color: rgb(249 , 247 , 237)&quot;&gt;security SME&lt;/span&gt;" style="shape=umlActor;verticalLabelPosition=bottom;labelBackgroundColor=#ffffff;verticalAlign=top;html=1;outlineConnect=0;fillColor=#F9F7ED;" parent="nt4A36XUKgA60ntTlZA5-1" vertex="1">
          <mxGeometry x="-3935" y="4070" width="30" height="60" as="geometry" />
        </mxCell>
        <mxCell id="mFnkBL1FFMKKfn035he2-24" value="to issue tracking system" style="text;html=1;strokeColor=none;fillColor=none;align=center;verticalAlign=middle;whiteSpace=wrap;rounded=0;" parent="nt4A36XUKgA60ntTlZA5-1" vertex="1">
          <mxGeometry x="-3043" y="4245" width="60" height="50" as="geometry" />
        </mxCell>
        <mxCell id="mFnkBL1FFMKKfn035he2-25" style="edgeStyle=orthogonalEdgeStyle;rounded=0;orthogonalLoop=1;jettySize=auto;html=1;entryX=0.5;entryY=0;entryDx=0;entryDy=0;fillColor=#6a00ff;strokeColor=#3700CC;" parent="nt4A36XUKgA60ntTlZA5-1" source="mFnkBL1FFMKKfn035he2-26" target="mFnkBL1FFMKKfn035he2-18" edge="1">
          <mxGeometry relative="1" as="geometry" />
        </mxCell>
        <mxCell id="mFnkBL1FFMKKfn035he2-26" value="&lt;span style=&quot;background-color: rgb(212 , 225 , 245)&quot;&gt;security SME&lt;/span&gt;" style="shape=umlActor;verticalLabelPosition=bottom;labelBackgroundColor=#ffffff;verticalAlign=top;html=1;outlineConnect=0;fillColor=#D4E1F5;" parent="nt4A36XUKgA60ntTlZA5-1" vertex="1">
          <mxGeometry x="-3278" y="4070" width="30" height="60" as="geometry" />
        </mxCell>
        <mxCell id="mFnkBL1FFMKKfn035he2-27" value="threat candidate slicing" style="text;html=1;strokeColor=none;fillColor=none;align=center;verticalAlign=middle;whiteSpace=wrap;rounded=0;" parent="nt4A36XUKgA60ntTlZA5-1" vertex="1">
          <mxGeometry x="-3430" y="4480" width="367" height="20" as="geometry" />
        </mxCell>
        <mxCell id="mFnkBL1FFMKKfn035he2-28" value="ranked threat candidate risking" style="text;html=1;strokeColor=none;fillColor=none;align=center;verticalAlign=middle;whiteSpace=wrap;rounded=0;" parent="nt4A36XUKgA60ntTlZA5-1" vertex="1">
          <mxGeometry x="-3720" y="4480" width="290" height="20" as="geometry" />
        </mxCell>
        <mxCell id="mFnkBL1FFMKKfn035he2-29" value="threat candidate ranking" style="text;html=1;strokeColor=none;fillColor=none;align=center;verticalAlign=middle;whiteSpace=wrap;rounded=0;" parent="nt4A36XUKgA60ntTlZA5-1" vertex="1">
          <mxGeometry x="-4010" y="4480" width="290" height="20" as="geometry" />
        </mxCell>
        <mxCell id="mFnkBL1FFMKKfn035he2-30" style="edgeStyle=orthogonalEdgeStyle;rounded=0;orthogonalLoop=1;jettySize=auto;html=1;entryX=0;entryY=0.5;entryDx=0;entryDy=0;strokeColor=#FF8000;" parent="nt4A36XUKgA60ntTlZA5-1" source="mFnkBL1FFMKKfn035he2-31" target="mFnkBL1FFMKKfn035he2-7" edge="1">
          <mxGeometry relative="1" as="geometry" />
        </mxCell>
        <mxCell id="mFnkBL1FFMKKfn035he2-31" value="triaged&lt;br&gt;threat candidates" style="shape=note;whiteSpace=wrap;html=1;backgroundOutline=1;darkOpacity=0.05;" parent="nt4A36XUKgA60ntTlZA5-1" vertex="1">
          <mxGeometry x="-4120" y="4220" width="80" height="100" as="geometry" />
        </mxCell>
        <mxCell id="mFnkBL1FFMKKfn035he2-32" value="attack feasibility rating" style="whiteSpace=wrap;html=1;rounded=1;arcSize=42;align=center;verticalAlign=middle;strokeWidth=3;autosize=1;spacing=4;treeFolding=1;treeMoving=1;newEdgeStyle={&quot;edgeStyle&quot;:&quot;entityRelationEdgeStyle&quot;,&quot;startArrow&quot;:&quot;none&quot;,&quot;endArrow&quot;:&quot;none&quot;,&quot;segment&quot;:10,&quot;curved&quot;:1};strokeColor=#FF0000;" parent="nt4A36XUKgA60ntTlZA5-1" vertex="1">
          <mxGeometry x="-4110" y="4530" width="168" height="30" as="geometry" />
        </mxCell>
        <mxCell id="mFnkBL1FFMKKfn035he2-33" value="" style="edgeStyle=entityRelationEdgeStyle;startArrow=none;endArrow=none;segment=10;curved=1;rounded=0;strokeColor=#FF0000;strokeWidth=3;exitX=0.517;exitY=0.804;exitDx=0;exitDy=0;exitPerimeter=0;" parent="nt4A36XUKgA60ntTlZA5-1" source="mFnkBL1FFMKKfn035he2-2" target="mFnkBL1FFMKKfn035he2-32" edge="1">
          <mxGeometry relative="1" as="geometry">
            <mxPoint x="-3380" y="4970" as="sourcePoint" />
          </mxGeometry>
        </mxCell>
        <mxCell id="mFnkBL1FFMKKfn035he2-34" value="impact rating" style="whiteSpace=wrap;html=1;rounded=1;arcSize=42;align=center;verticalAlign=middle;strokeWidth=3;autosize=1;spacing=4;treeFolding=1;treeMoving=1;newEdgeStyle={&quot;edgeStyle&quot;:&quot;entityRelationEdgeStyle&quot;,&quot;startArrow&quot;:&quot;none&quot;,&quot;endArrow&quot;:&quot;none&quot;,&quot;segment&quot;:10,&quot;curved&quot;:1};strokeColor=#FF0000;" parent="nt4A36XUKgA60ntTlZA5-1" vertex="1">
          <mxGeometry x="-3318" y="4530" width="110" height="30" as="geometry" />
        </mxCell>
        <mxCell id="mFnkBL1FFMKKfn035he2-35" value="" style="edgeStyle=entityRelationEdgeStyle;startArrow=none;endArrow=none;segment=10;curved=1;rounded=0;strokeColor=#FF0000;strokeWidth=3;exitX=0.621;exitY=0.848;exitDx=0;exitDy=0;exitPerimeter=0;" parent="nt4A36XUKgA60ntTlZA5-1" source="mFnkBL1FFMKKfn035he2-1" target="mFnkBL1FFMKKfn035he2-34" edge="1">
          <mxGeometry relative="1" as="geometry">
            <mxPoint x="-3210" y="4970" as="sourcePoint" />
          </mxGeometry>
        </mxCell>
        <mxCell id="mFnkBL1FFMKKfn035he2-36" value="risk determination" style="whiteSpace=wrap;html=1;rounded=1;arcSize=42;align=center;verticalAlign=middle;strokeWidth=3;autosize=1;spacing=4;treeFolding=1;treeMoving=1;newEdgeStyle={&quot;edgeStyle&quot;:&quot;entityRelationEdgeStyle&quot;,&quot;startArrow&quot;:&quot;none&quot;,&quot;endArrow&quot;:&quot;none&quot;,&quot;segment&quot;:10,&quot;curved&quot;:1};strokeColor=#FF0000;" parent="nt4A36XUKgA60ntTlZA5-1" vertex="1">
          <mxGeometry x="-3140" y="4530" width="140" height="30" as="geometry" />
        </mxCell>
        <mxCell id="mFnkBL1FFMKKfn035he2-37" value="" style="edgeStyle=entityRelationEdgeStyle;startArrow=none;endArrow=none;segment=10;curved=1;rounded=0;strokeColor=#FF0000;strokeWidth=3;entryX=0;entryY=0.5;entryDx=0;entryDy=0;exitX=0.191;exitY=0.87;exitDx=0;exitDy=0;exitPerimeter=0;" parent="nt4A36XUKgA60ntTlZA5-1" source="mFnkBL1FFMKKfn035he2-3" target="mFnkBL1FFMKKfn035he2-36" edge="1">
          <mxGeometry relative="1" as="geometry">
            <mxPoint x="-4023" y="4900" as="sourcePoint" />
          </mxGeometry>
        </mxCell>
        <mxCell id="2_tRkEtTqSz7MnFgchw8-1" style="edgeStyle=orthogonalEdgeStyle;rounded=0;orthogonalLoop=1;jettySize=auto;html=1;exitX=0.25;exitY=1;exitDx=0;exitDy=0;entryX=1;entryY=0.5;entryDx=0;entryDy=0;strokeWidth=1;dashed=1;" parent="nt4A36XUKgA60ntTlZA5-1" source="mFnkBL1FFMKKfn035he2-18" target="2_tRkEtTqSz7MnFgchw8-2" edge="1">
          <mxGeometry relative="1" as="geometry">
            <mxPoint x="-3945" y="4705" as="targetPoint" />
            <Array as="points">
              <mxPoint x="-3293" y="4330" />
            </Array>
            <mxPoint x="-3375" y="4670" as="sourcePoint" />
          </mxGeometry>
        </mxCell>
        <mxCell id="2_tRkEtTqSz7MnFgchw8-2" value="updated dismissed candidate in source tracker" style="text;html=1;strokeColor=none;fillColor=none;align=center;verticalAlign=middle;whiteSpace=wrap;rounded=0;" parent="nt4A36XUKgA60ntTlZA5-1" vertex="1">
          <mxGeometry x="-3420" y="4300" width="85" height="60" as="geometry" />
        </mxCell>
        <mxCell id="oJfFmYbbeNZ2DAfbbMkA-2" value="damage scenario identification" style="whiteSpace=wrap;html=1;rounded=1;arcSize=42;align=center;verticalAlign=middle;strokeWidth=3;autosize=1;spacing=4;treeFolding=1;treeMoving=1;newEdgeStyle={&quot;edgeStyle&quot;:&quot;entityRelationEdgeStyle&quot;,&quot;startArrow&quot;:&quot;none&quot;,&quot;endArrow&quot;:&quot;none&quot;,&quot;segment&quot;:10,&quot;curved&quot;:1};strokeColor=#FF0000;" parent="nt4A36XUKgA60ntTlZA5-1" vertex="1">
          <mxGeometry x="-3775" y="4530" width="200" height="30" as="geometry" />
        </mxCell>
        <mxCell id="oJfFmYbbeNZ2DAfbbMkA-3" value="" style="edgeStyle=entityRelationEdgeStyle;startArrow=none;endArrow=none;segment=10;curved=1;rounded=0;strokeColor=#FF0000;strokeWidth=3;exitX=0.517;exitY=0.891;exitDx=0;exitDy=0;exitPerimeter=0;" parent="nt4A36XUKgA60ntTlZA5-1" source="mFnkBL1FFMKKfn035he2-2" target="oJfFmYbbeNZ2DAfbbMkA-2" edge="1">
          <mxGeometry relative="1" as="geometry">
            <mxPoint x="-3645.08" y="4480.02" as="sourcePoint" />
          </mxGeometry>
        </mxCell>
        <mxCell id="pGxS03zHQRunTW_-ZkdE-2" value="" style="rounded=0;whiteSpace=wrap;html=1;strokeColor=none;fillColor=#D5E8D4;" vertex="1" parent="nt4A36XUKgA60ntTlZA5-1">
          <mxGeometry x="-2720" y="4040" width="290" height="460" as="geometry" />
        </mxCell>
        <mxCell id="pGxS03zHQRunTW_-ZkdE-3" value="ranked / risked&lt;br&gt;threat report" style="shape=document;whiteSpace=wrap;html=1;boundedLbl=1;" vertex="1" parent="nt4A36XUKgA60ntTlZA5-1">
          <mxGeometry x="-2700" y="4380" width="120" height="80" as="geometry" />
        </mxCell>
        <mxCell id="pGxS03zHQRunTW_-ZkdE-4" style="edgeStyle=orthogonalEdgeStyle;rounded=0;orthogonalLoop=1;jettySize=auto;html=1;exitX=0.5;exitY=1;exitDx=0;exitDy=0;" edge="1" source="pGxS03zHQRunTW_-ZkdE-10" target="pGxS03zHQRunTW_-ZkdE-3" parent="nt4A36XUKgA60ntTlZA5-1">
          <mxGeometry relative="1" as="geometry" />
        </mxCell>
        <mxCell id="pGxS03zHQRunTW_-ZkdE-5" style="edgeStyle=orthogonalEdgeStyle;rounded=0;orthogonalLoop=1;jettySize=auto;html=1;entryX=0.5;entryY=0;entryDx=0;entryDy=0;fillColor=#6a00ff;strokeColor=#3700CC;" edge="1" source="pGxS03zHQRunTW_-ZkdE-6" target="pGxS03zHQRunTW_-ZkdE-10" parent="nt4A36XUKgA60ntTlZA5-1">
          <mxGeometry relative="1" as="geometry" />
        </mxCell>
        <mxCell id="pGxS03zHQRunTW_-ZkdE-6" value="&lt;span style=&quot;background-color: rgb(213 , 232 , 212)&quot;&gt;risk SME&lt;/span&gt;" style="shape=umlActor;verticalLabelPosition=bottom;labelBackgroundColor=#ffffff;verticalAlign=top;html=1;outlineConnect=0;fillColor=#D5E8D4;" vertex="1" parent="nt4A36XUKgA60ntTlZA5-1">
          <mxGeometry x="-2655" y="4070" width="30" height="60" as="geometry" />
        </mxCell>
        <mxCell id="pGxS03zHQRunTW_-ZkdE-7" style="edgeStyle=orthogonalEdgeStyle;rounded=0;orthogonalLoop=1;jettySize=auto;html=1;entryX=0;entryY=0.5;entryDx=0;entryDy=0;fillColor=#fa6800;strokeColor=#FF8000;" edge="1" source="pGxS03zHQRunTW_-ZkdE-8" target="pGxS03zHQRunTW_-ZkdE-10" parent="nt4A36XUKgA60ntTlZA5-1">
          <mxGeometry relative="1" as="geometry" />
        </mxCell>
        <mxCell id="pGxS03zHQRunTW_-ZkdE-8" value="ranked&lt;br&gt;threat candidates" style="shape=note;whiteSpace=wrap;html=1;backgroundOutline=1;darkOpacity=0.05;" vertex="1" parent="nt4A36XUKgA60ntTlZA5-1">
          <mxGeometry x="-2820" y="4220" width="80" height="100" as="geometry" />
        </mxCell>
        <mxCell id="pGxS03zHQRunTW_-ZkdE-9" value="" style="edgeStyle=orthogonalEdgeStyle;rounded=0;orthogonalLoop=1;jettySize=auto;html=1;" edge="1" source="pGxS03zHQRunTW_-ZkdE-10" target="pGxS03zHQRunTW_-ZkdE-12" parent="nt4A36XUKgA60ntTlZA5-1">
          <mxGeometry relative="1" as="geometry" />
        </mxCell>
        <mxCell id="pGxS03zHQRunTW_-ZkdE-10" value="risk" style="shape=process;whiteSpace=wrap;html=1;backgroundOutline=1;" vertex="1" parent="nt4A36XUKgA60ntTlZA5-1">
          <mxGeometry x="-2700" y="4240" width="120" height="60" as="geometry" />
        </mxCell>
        <mxCell id="pGxS03zHQRunTW_-ZkdE-12" value="ranked/risked&lt;br&gt;threat candidates" style="shape=note;whiteSpace=wrap;html=1;backgroundOutline=1;darkOpacity=0.05;" vertex="1" parent="nt4A36XUKgA60ntTlZA5-1">
          <mxGeometry x="-2540" y="4220" width="80" height="100" as="geometry" />
        </mxCell>
        <mxCell id="pGxS03zHQRunTW_-ZkdE-13" value="ranked threat candidate risking" style="text;html=1;strokeColor=none;fillColor=none;align=center;verticalAlign=middle;whiteSpace=wrap;rounded=0;" vertex="1" parent="nt4A36XUKgA60ntTlZA5-1">
          <mxGeometry x="-2720" y="4480" width="290" height="20" as="geometry" />
        </mxCell>
        <mxCell id="pGxS03zHQRunTW_-ZkdE-14" value="impact rating" style="whiteSpace=wrap;html=1;rounded=1;arcSize=42;align=center;verticalAlign=middle;strokeWidth=3;autosize=1;spacing=4;treeFolding=1;treeMoving=1;newEdgeStyle={&quot;edgeStyle&quot;:&quot;entityRelationEdgeStyle&quot;,&quot;startArrow&quot;:&quot;none&quot;,&quot;endArrow&quot;:&quot;none&quot;,&quot;segment&quot;:10,&quot;curved&quot;:1};strokeColor=#FF0000;" vertex="1" parent="nt4A36XUKgA60ntTlZA5-1">
          <mxGeometry x="-2630" y="4530" width="110" height="30" as="geometry" />
        </mxCell>
        <mxCell id="pGxS03zHQRunTW_-ZkdE-15" value="" style="edgeStyle=entityRelationEdgeStyle;startArrow=none;endArrow=none;segment=10;curved=1;rounded=0;strokeColor=#FF0000;strokeWidth=3;entryX=0.5;entryY=0;entryDx=0;entryDy=0;exitX=0.69;exitY=0.848;exitDx=0;exitDy=0;exitPerimeter=0;" edge="1" source="pGxS03zHQRunTW_-ZkdE-2" target="pGxS03zHQRunTW_-ZkdE-14" parent="nt4A36XUKgA60ntTlZA5-1">
          <mxGeometry relative="1" as="geometry">
            <mxPoint x="-2500" y="4480" as="sourcePoint" />
          </mxGeometry>
        </mxCell>
        <mxCell id="nt4A36XUKgA60ntTlZA5-24" value="overlay" parent="nt4A36XUKgA60ntTlZA5-0" />
        <mxCell id="ABIm5Em_ovhDSAODpkLb-0" value="" style="rounded=1;whiteSpace=wrap;html=1;fillColor=none;strokeColor=#FF0000;strokeWidth=3;arcSize=3;" parent="nt4A36XUKgA60ntTlZA5-24" vertex="1">
          <mxGeometry x="-3140" y="2320" width="330" height="470" as="geometry" />
        </mxCell>
        <mxCell id="zd9Hb2fchRFQWG5ULuG4-99" value="asset identification" style="whiteSpace=wrap;html=1;rounded=1;arcSize=42;align=center;verticalAlign=middle;strokeWidth=3;autosize=1;spacing=4;treeFolding=1;treeMoving=1;newEdgeStyle={&quot;edgeStyle&quot;:&quot;entityRelationEdgeStyle&quot;,&quot;startArrow&quot;:&quot;none&quot;,&quot;endArrow&quot;:&quot;none&quot;,&quot;segment&quot;:10,&quot;curved&quot;:1};strokeColor=#FF0000;" parent="nt4A36XUKgA60ntTlZA5-24" vertex="1">
          <mxGeometry x="-3820" y="3940" width="124" height="30" as="geometry" />
        </mxCell>
        <mxCell id="zd9Hb2fchRFQWG5ULuG4-100" value="" style="edgeStyle=entityRelationEdgeStyle;startArrow=none;endArrow=none;segment=10;curved=1;rounded=0;strokeColor=#FF0000;strokeWidth=3;exitX=0.452;exitY=0.783;exitDx=0;exitDy=0;exitPerimeter=0;" parent="nt4A36XUKgA60ntTlZA5-24" source="zd9Hb2fchRFQWG5ULuG4-65" target="zd9Hb2fchRFQWG5ULuG4-99" edge="1">
          <mxGeometry relative="1" as="geometry">
            <mxPoint x="-3620" y="4165" as="sourcePoint" />
          </mxGeometry>
        </mxCell>
        <mxCell id="zd9Hb2fchRFQWG5ULuG4-101" value="" style="edgeStyle=entityRelationEdgeStyle;startArrow=none;endArrow=none;segment=10;curved=1;rounded=0;strokeColor=#FF0000;exitX=0.476;exitY=0.772;exitDx=0;exitDy=0;exitPerimeter=0;strokeWidth=3;" parent="nt4A36XUKgA60ntTlZA5-24" target="zd9Hb2fchRFQWG5ULuG4-102" edge="1">
          <mxGeometry relative="1" as="geometry">
            <mxPoint x="-3426.079999999999" y="3810.12" as="sourcePoint" />
          </mxGeometry>
        </mxCell>
        <mxCell id="zd9Hb2fchRFQWG5ULuG4-102" value="attack path analysis" style="whiteSpace=wrap;html=1;rounded=1;arcSize=42;align=center;verticalAlign=middle;strokeWidth=3;autosize=1;spacing=4;treeFolding=1;treeMoving=1;newEdgeStyle={&quot;edgeStyle&quot;:&quot;entityRelationEdgeStyle&quot;,&quot;startArrow&quot;:&quot;none&quot;,&quot;endArrow&quot;:&quot;none&quot;,&quot;segment&quot;:10,&quot;curved&quot;:1};strokeColor=#FF0000;" parent="nt4A36XUKgA60ntTlZA5-24" vertex="1">
          <mxGeometry x="-3190" y="3940" width="150" height="30" as="geometry" />
        </mxCell>
        <mxCell id="zd9Hb2fchRFQWG5ULuG4-103" value="threat scenario identification" style="whiteSpace=wrap;html=1;rounded=1;arcSize=42;align=center;verticalAlign=middle;strokeWidth=3;autosize=1;spacing=4;treeFolding=1;treeMoving=1;newEdgeStyle={&quot;edgeStyle&quot;:&quot;entityRelationEdgeStyle&quot;,&quot;startArrow&quot;:&quot;none&quot;,&quot;endArrow&quot;:&quot;none&quot;,&quot;segment&quot;:10,&quot;curved&quot;:1};strokeColor=#FF0000;" parent="nt4A36XUKgA60ntTlZA5-24" vertex="1">
          <mxGeometry x="-3480" y="3940" width="190" height="30" as="geometry" />
        </mxCell>
        <mxCell id="zd9Hb2fchRFQWG5ULuG4-104" value="" style="edgeStyle=entityRelationEdgeStyle;startArrow=none;endArrow=none;segment=10;curved=1;rounded=0;strokeColor=#FF0000;strokeWidth=3;exitX=0.419;exitY=0.815;exitDx=0;exitDy=0;exitPerimeter=0;" parent="nt4A36XUKgA60ntTlZA5-24" source="zd9Hb2fchRFQWG5ULuG4-66" target="zd9Hb2fchRFQWG5ULuG4-103" edge="1">
          <mxGeometry relative="1" as="geometry">
            <mxPoint x="-3260" y="4165" as="sourcePoint" />
          </mxGeometry>
        </mxCell>
        <mxCell id="zd9Hb2fchRFQWG5ULuG4-139" value="asset identification" style="whiteSpace=wrap;html=1;rounded=1;arcSize=42;align=center;verticalAlign=middle;strokeWidth=3;autosize=1;spacing=4;treeFolding=1;treeMoving=1;newEdgeStyle={&quot;edgeStyle&quot;:&quot;entityRelationEdgeStyle&quot;,&quot;startArrow&quot;:&quot;none&quot;,&quot;endArrow&quot;:&quot;none&quot;,&quot;segment&quot;:10,&quot;curved&quot;:1};strokeColor=#FF0000;" parent="nt4A36XUKgA60ntTlZA5-24" vertex="1">
          <mxGeometry x="-2630" y="3930" width="124" height="30" as="geometry" />
        </mxCell>
        <mxCell id="zd9Hb2fchRFQWG5ULuG4-140" value="" style="edgeStyle=entityRelationEdgeStyle;startArrow=none;endArrow=none;segment=10;curved=1;rounded=0;strokeColor=#FF0000;strokeWidth=3;exitX=0.452;exitY=0.783;exitDx=0;exitDy=0;exitPerimeter=0;" parent="nt4A36XUKgA60ntTlZA5-24" source="zd9Hb2fchRFQWG5ULuG4-105" target="zd9Hb2fchRFQWG5ULuG4-139" edge="1">
          <mxGeometry relative="1" as="geometry">
            <mxPoint x="-2350" y="4150" as="sourcePoint" />
          </mxGeometry>
        </mxCell>
        <mxCell id="zd9Hb2fchRFQWG5ULuG4-172" value="" style="edgeStyle=entityRelationEdgeStyle;startArrow=none;endArrow=none;segment=10;curved=1;rounded=0;strokeColor=#FF0000;exitX=0.524;exitY=0.826;exitDx=0;exitDy=0;exitPerimeter=0;strokeWidth=3;entryX=0.5;entryY=0;entryDx=0;entryDy=0;" parent="nt4A36XUKgA60ntTlZA5-24" source="zd9Hb2fchRFQWG5ULuG4-160" target="zd9Hb2fchRFQWG5ULuG4-173" edge="1">
          <mxGeometry relative="1" as="geometry">
            <mxPoint x="-1896.079999999999" y="3810.12" as="sourcePoint" />
          </mxGeometry>
        </mxCell>
        <mxCell id="zd9Hb2fchRFQWG5ULuG4-173" value="attack path analysis" style="whiteSpace=wrap;html=1;rounded=1;arcSize=42;align=center;verticalAlign=middle;strokeWidth=3;autosize=1;spacing=4;treeFolding=1;treeMoving=1;newEdgeStyle={&quot;edgeStyle&quot;:&quot;entityRelationEdgeStyle&quot;,&quot;startArrow&quot;:&quot;none&quot;,&quot;endArrow&quot;:&quot;none&quot;,&quot;segment&quot;:10,&quot;curved&quot;:1};strokeColor=#FF0000;" parent="nt4A36XUKgA60ntTlZA5-24" vertex="1">
          <mxGeometry x="-1970" y="3940" width="150" height="30" as="geometry" />
        </mxCell>
        <mxCell id="zd9Hb2fchRFQWG5ULuG4-174" value="threat scenario identification" style="whiteSpace=wrap;html=1;rounded=1;arcSize=42;align=center;verticalAlign=middle;strokeWidth=3;autosize=1;spacing=4;treeFolding=1;treeMoving=1;newEdgeStyle={&quot;edgeStyle&quot;:&quot;entityRelationEdgeStyle&quot;,&quot;startArrow&quot;:&quot;none&quot;,&quot;endArrow&quot;:&quot;none&quot;,&quot;segment&quot;:10,&quot;curved&quot;:1};strokeColor=#FF0000;" parent="nt4A36XUKgA60ntTlZA5-24" vertex="1">
          <mxGeometry x="-2250" y="3940" width="190" height="30" as="geometry" />
        </mxCell>
        <mxCell id="zd9Hb2fchRFQWG5ULuG4-175" value="" style="edgeStyle=entityRelationEdgeStyle;startArrow=none;endArrow=none;segment=10;curved=1;rounded=0;strokeColor=#FF0000;strokeWidth=3;exitX=0.419;exitY=0.815;exitDx=0;exitDy=0;exitPerimeter=0;entryX=0.5;entryY=0;entryDx=0;entryDy=0;" parent="nt4A36XUKgA60ntTlZA5-24" source="zd9Hb2fchRFQWG5ULuG4-160" target="zd9Hb2fchRFQWG5ULuG4-174" edge="1">
          <mxGeometry relative="1" as="geometry">
            <mxPoint x="-1730" y="4165" as="sourcePoint" />
          </mxGeometry>
        </mxCell>
        <mxCell id="pGxS03zHQRunTW_-ZkdE-0" value="cybersecurity claim" style="whiteSpace=wrap;html=1;rounded=1;arcSize=42;align=center;verticalAlign=middle;strokeWidth=3;autosize=1;spacing=4;treeFolding=1;treeMoving=1;newEdgeStyle={&quot;edgeStyle&quot;:&quot;entityRelationEdgeStyle&quot;,&quot;startArrow&quot;:&quot;none&quot;,&quot;endArrow&quot;:&quot;none&quot;,&quot;segment&quot;:10,&quot;curved&quot;:1};strokeColor=#FF0000;" vertex="1" parent="nt4A36XUKgA60ntTlZA5-24">
          <mxGeometry x="-2810" y="4530" width="135" height="30" as="geometry" />
        </mxCell>
        <mxCell id="pGxS03zHQRunTW_-ZkdE-1" value="" style="edgeStyle=entityRelationEdgeStyle;startArrow=none;endArrow=none;segment=10;curved=1;rounded=0;strokeColor=#FF0000;strokeWidth=3;exitX=0.552;exitY=0.848;exitDx=0;exitDy=0;exitPerimeter=0;" edge="1" parent="nt4A36XUKgA60ntTlZA5-24" target="pGxS03zHQRunTW_-ZkdE-0" source="pGxS03zHQRunTW_-ZkdE-2">
          <mxGeometry relative="1" as="geometry">
            <mxPoint x="-4089.8999999999996" y="4660.08" as="sourcePoint" />
          </mxGeometry>
        </mxCell>
        <mxCell id="pGxS03zHQRunTW_-ZkdE-19" value="cybersecurity claim" style="whiteSpace=wrap;html=1;rounded=1;arcSize=42;align=center;verticalAlign=middle;strokeWidth=3;autosize=1;spacing=4;treeFolding=1;treeMoving=1;newEdgeStyle={&quot;edgeStyle&quot;:&quot;entityRelationEdgeStyle&quot;,&quot;startArrow&quot;:&quot;none&quot;,&quot;endArrow&quot;:&quot;none&quot;,&quot;segment&quot;:10,&quot;curved&quot;:1};strokeColor=#FF0000;" vertex="1" parent="nt4A36XUKgA60ntTlZA5-24">
          <mxGeometry x="-3520" y="4530" width="135" height="30" as="geometry" />
        </mxCell>
        <mxCell id="pGxS03zHQRunTW_-ZkdE-20" value="" style="edgeStyle=entityRelationEdgeStyle;startArrow=none;endArrow=none;segment=10;curved=1;rounded=0;strokeColor=#FF0000;strokeWidth=3;exitX=0.345;exitY=0.913;exitDx=0;exitDy=0;exitPerimeter=0;" edge="1" target="pGxS03zHQRunTW_-ZkdE-19" parent="nt4A36XUKgA60ntTlZA5-24" source="mFnkBL1FFMKKfn035he2-1">
          <mxGeometry relative="1" as="geometry">
            <mxPoint x="-3039.92" y="4580" as="sourcePoint" />
          </mxGeometry>
        </mxCell>
      </root>
    </mxGraphModel>
  </diagram>
</mxfile>
